<svg width="76" height="76" viewBox="0 0 76 76" fill="none" xmlns="http://www.w3.org/2000/svg">
<path fill-rule="evenodd" clip-rule="evenodd" d="M38.3442 6C38.9385 6 39.5254 6.05669 40.1014 6.16823C40.202 6.18651 40.2953 6.2304 40.394 6.25051C40.8731 6.3584 41.3485 6.48457 41.8148 6.66377C41.9446 6.7168 42.0708 6.79543 42.2043 6.85394C42.6267 7.0368 43.0491 7.23063 43.4605 7.47566C43.6342 7.57623 43.8006 7.71337 43.9725 7.82674C44.3273 8.06446 44.6857 8.29669 45.0258 8.57646C45.2342 8.74286 45.4335 8.944 45.6383 9.12869C45.9327 9.39749 46.229 9.65897 46.5142 9.9552C46.7337 10.1856 46.9421 10.4471 47.1561 10.6939C47.4121 10.9938 47.6717 11.2882 47.9186 11.6137C48.127 11.888 48.3263 12.1879 48.5293 12.4805C48.7707 12.8297 49.0102 13.179 49.2406 13.552C49.4217 13.8446 49.5917 14.1554 49.7654 14.4626C50.0086 14.896 50.25 15.3312 50.4786 15.792C50.5353 15.9072 50.6011 16.0114 50.6578 16.1285C57.6722 15.6786 62.9897 17.765 65.3705 22C65.6722 22.5303 65.9154 23.0807 66.1092 23.6512C66.1275 23.7006 66.1348 23.7573 66.1513 23.8085C66.3213 24.3296 66.4585 24.8654 66.5462 25.4158C66.5645 25.5474 66.5627 25.6846 66.5773 25.8162C66.6377 26.2971 66.687 26.7799 66.6852 27.2791C66.6852 27.4839 66.6541 27.6978 66.6431 27.9063C66.6212 28.3415 66.6029 28.7749 66.5407 29.2192C66.5005 29.4917 66.4274 29.7714 66.3762 30.0457C66.2975 30.4389 66.2262 30.8302 66.1147 31.2306C66.0306 31.5451 65.9135 31.8633 65.8093 32.1815L65.6228 32.741L65.418 33.3042C65.29 33.6315 65.1346 33.9589 64.9865 34.2898C64.8127 34.6757 64.639 35.0615 64.4415 35.4491C64.2861 35.7563 64.1069 36.0654 63.9332 36.3744C63.69 36.8078 63.4395 37.2357 63.167 37.6672C63.0994 37.7787 63.0463 37.8885 62.975 38C63.0445 38.1097 63.0975 38.2176 63.1652 38.3273C63.4431 38.7625 63.6918 39.1959 63.9369 39.6293C64.1087 39.9365 64.2843 40.2437 64.4397 40.5472C64.6409 40.9403 64.8164 41.3298 64.9919 41.7175C65.1382 42.0448 65.29 42.3685 65.4162 42.6921C65.5679 43.0743 65.6886 43.451 65.813 43.8295C65.9154 44.1422 66.0306 44.4567 66.1147 44.7657C66.2244 45.1717 66.2994 45.5666 66.378 45.9653C66.4292 46.2341 66.5005 46.5083 66.5407 46.7771C66.6029 47.2233 66.6212 47.6603 66.6431 48.0974C66.6541 48.304 66.6852 48.5179 66.6852 48.7191C66.6852 49.2165 66.6377 49.6974 66.5791 50.1765C66.5609 50.3099 66.5663 50.4507 66.5462 50.5824C66.4585 51.131 66.3213 51.6594 66.1549 52.1769C66.1366 52.2318 66.1293 52.2939 66.1092 52.3488C65.9154 52.9193 65.6703 53.4697 65.3741 54C62.9897 58.2331 57.6905 60.3506 50.6578 59.8697C50.6066 59.9758 50.5481 60.0654 50.4932 60.1733C50.2518 60.6597 49.9995 61.1241 49.738 61.5813C49.5789 61.8665 49.4198 62.1554 49.2534 62.4279C49.0084 62.8192 48.7561 63.1886 48.5037 63.5561C48.3099 63.8304 48.1234 64.1157 47.9277 64.3735C47.6699 64.7136 47.4011 65.019 47.1323 65.3317C46.9275 65.5694 46.7282 65.8181 46.5179 66.0375C46.2253 66.3447 45.9199 66.6135 45.6164 66.8878C45.4207 67.0651 45.2287 67.259 45.0313 67.4217C44.682 67.7051 44.3181 67.9447 43.9561 68.1842C43.7897 68.2939 43.6306 68.4219 43.4623 68.5243C43.0473 68.7694 42.6212 68.9632 42.1951 69.1515C42.0671 69.2064 41.9446 69.2832 41.8148 69.3326C41.3449 69.5154 40.8639 69.6434 40.3794 69.7531C40.2879 69.7733 40.1965 69.8135 40.1051 69.8318C39.5273 69.9415 38.9403 70 38.346 70C33.5789 70 29.1538 66.3337 26.0342 59.8807C25.9794 59.8825 25.9245 59.8917 25.8697 59.8953C25.2699 59.9319 24.6811 59.9502 24.1069 59.9502C23.9167 59.9502 23.7394 59.9319 23.551 59.9264L23.3353 59.9154C22.62 59.8951 21.9061 59.8414 21.1958 59.7545C21.1263 59.7454 21.0587 59.7344 20.9874 59.7271C20.2962 59.6338 19.6342 59.5077 19.0015 59.3522L18.8498 59.3157C18.2247 59.1571 17.6103 58.9592 17.0102 58.7232C16.97 58.7104 16.9316 58.6939 16.8914 58.6793C16.3314 58.453 15.7876 58.1884 15.2639 57.8875C15.2201 57.8638 15.1725 57.84 15.1305 57.8144C14.6565 57.5327 14.2042 57.2161 13.7773 56.8672C13.7188 56.8197 13.653 56.7794 13.5945 56.7282C13.2103 56.3992 12.8515 56.0416 12.5211 55.6585C12.4553 55.5854 12.3803 55.5232 12.3199 55.4482C11.9443 54.9956 11.609 54.5111 11.3179 54C8.93343 49.765 9.81846 43.9977 13.717 38C9.8148 32.0023 8.93343 26.2331 11.3179 22C13.7005 17.7669 18.8809 15.6731 25.8715 16.1029L26.0361 16.1193C29.1519 9.66446 33.5789 6 38.346 6H38.3442ZM48.7945 51.5497C48.1106 51.9941 47.4267 52.4366 46.7135 52.859C41.4546 55.9694 35.9689 58.1545 30.8306 59.2169C33.0194 63.1374 35.6726 65.3609 38.346 65.3609C38.7593 65.3609 39.167 65.3006 39.5657 65.211C41.855 64.6441 44.0767 62.4754 45.9492 59.0578C47.0921 56.9111 48.0521 54.3493 48.7945 51.5515V51.5497ZM24.9426 20.7182C24.3227 20.6944 23.7302 20.6999 23.1579 20.7255L22.7922 20.7456C22.1608 20.7867 21.5321 20.8618 20.9087 20.9705C20.5869 21.0254 20.2815 21.0967 19.9817 21.1717C19.7494 21.232 19.519 21.2887 19.3014 21.36C19.0674 21.4331 18.8461 21.5209 18.6285 21.6069C18.3981 21.6983 18.1641 21.7897 17.9519 21.8958C17.7618 21.9872 17.5899 22.0969 17.4143 22.203C17.215 22.32 17.0121 22.4334 16.8329 22.565C16.6463 22.704 16.4873 22.8576 16.3227 23.0094C16.191 23.1301 16.0466 23.2416 15.9277 23.3714C15.6615 23.6616 15.4285 23.9805 15.2329 24.3223C13.6109 27.2023 14.7263 31.6859 18.2975 36.6194L19.2959 38.0018L18.2975 39.3824C14.7263 44.3159 13.6109 48.7995 15.2347 51.6832C15.4249 52.0233 15.6607 52.336 15.9259 52.6304C16.0484 52.7639 16.1965 52.8791 16.3318 53.0034C16.4927 53.1515 16.65 53.3051 16.831 53.4386C17.0102 53.5666 17.2114 53.6837 17.4089 53.797C17.5881 53.9067 17.7636 54.0165 17.9574 54.1134C18.1586 54.2139 18.3798 54.2981 18.5974 54.3858C18.8351 54.4809 19.0729 54.5742 19.3289 54.6546C19.5209 54.7168 19.7238 54.768 19.9231 54.8192C20.4127 54.9496 20.9098 55.0498 21.4116 55.1191C21.9694 55.2 22.5308 55.2531 23.0939 55.2782C23.6882 55.3056 24.3081 55.3093 24.9517 55.2855H25.0194C25.6886 55.2544 26.3853 55.1977 27.1058 55.1154L27.2137 55.1045L27.9689 55.0149C33.1529 54.267 38.911 52.1221 44.4516 48.8453C46.4158 47.675 48.2997 46.3751 50.0909 44.9541C50.3908 42.6501 50.5572 40.3022 50.5572 38.0018C50.5572 35.6997 50.3926 33.3536 50.0909 31.0496C48.3002 29.6274 46.4162 28.3268 44.4516 27.1566C38.9129 23.8779 33.1547 21.7349 27.9725 20.987L27.221 20.8974C26.492 20.8105 25.7601 20.7514 25.0267 20.72L24.9426 20.7182ZM60.0109 41.9186C58.2845 43.9266 56.3926 45.786 54.3551 47.4775C53.9163 50.2752 53.2763 52.8827 52.4863 55.2818C56.906 55.3074 60.1133 54.0603 61.4537 51.6795C61.6603 51.3102 61.8139 50.917 61.9382 50.5147C62.591 48.229 61.898 45.2302 60.0109 41.9186ZM24.9243 40.7831V48.2034H22.2107V40.7831H24.9243ZM30.3515 37.0711V48.2034H27.6379V37.0729L30.3515 37.0711ZM35.7787 29.6526V48.2034H33.0651V29.6526H35.7787ZM41.2059 33.3627V48.2034H38.4923V33.3627H41.2059ZM55.0134 35.4949C55.0463 36.3232 55.0793 37.1515 55.0793 38C55.0793 38.8466 55.0463 39.675 55.0134 40.5033C55.8125 39.6768 56.5677 38.843 57.2607 38C56.5462 37.1346 55.7964 36.2989 55.0134 35.4949ZM24.9243 26.4069C27.1734 26.4069 28.9947 28.2738 28.9947 30.5797C28.9947 32.8837 27.1716 34.7543 24.9243 34.7543C22.6751 34.7543 20.8521 32.8855 20.8521 30.5797C20.8521 28.2757 22.6751 26.405 24.9243 26.405V26.4069ZM52.4863 20.72C53.2781 23.1154 53.9163 25.7248 54.3551 28.5207C56.4964 30.3072 58.3817 32.1778 60.0109 34.0795C61.898 30.7698 62.5892 27.7673 61.9382 25.4853C61.8191 25.0798 61.656 24.6886 61.4518 24.3186C60.1133 21.9397 56.9042 20.6962 52.4863 20.72ZM24.9243 29.1881C24.1746 29.1881 23.5675 29.8098 23.5675 30.5797C23.5675 31.3477 24.1746 31.9694 24.9243 31.9694C25.674 31.9694 26.2811 31.3477 26.2811 30.5797C26.2811 29.8117 25.6722 29.1899 24.9243 29.1899V29.1881ZM38.3423 10.6373C35.669 10.6373 33.0175 12.859 30.8287 16.7813C35.967 17.8418 41.4527 20.0288 46.7117 23.1392C47.4249 23.5616 48.1087 24.0059 48.7926 24.4466C48.0502 21.6489 47.0866 19.0816 45.9419 16.933C44.0713 13.5191 41.8514 11.3559 39.5638 10.789C39.1638 10.692 38.754 10.6411 38.3423 10.6373Z" fill="white"/>
</svg>
