<svg width="76" height="76" viewBox="0 0 76 76" fill="none" xmlns="http://www.w3.org/2000/svg">
<path d="M51.88 12.7368C60.7069 17.8989 66.2632 27.4366 66.2632 37.9512C66.2632 53.8366 53.6956 66.7478 38.083 67.0425L37.5373 67.0476V70L29.2105 64.9389L37.5373 59.8796V62.832C51.1019 62.832 62.0998 51.6926 62.0998 37.9512C62.0998 29.1579 57.5592 21.168 50.2968 16.688L49.7983 16.3882L51.88 12.7368ZM37.7259 6L46.0526 11.0611L37.7259 16.1204V13.168C24.1613 13.168 13.1634 24.3074 13.1634 38.0488C13.1634 46.8421 17.704 54.832 24.9663 59.312L25.4648 59.6118L23.3832 63.2632C14.5562 58.1011 9 48.5634 9 38.0488C9 22.1634 21.5676 9.25221 37.1802 8.95747L37.7259 8.95242V6ZM41 21.1579V24.5162C42.3318 24.848 43.6067 25.3765 44.7827 26.0842L47.1575 23.7095L51.9238 28.4724L49.5474 30.8472C50.2554 32.0242 50.7839 33.3003 51.1154 34.6333L54.4737 34.6316V41.3684H51.1154C50.7836 42.7002 50.2551 43.9752 49.5474 45.1512L51.9221 47.5259L47.1592 52.2922L44.7844 49.9158C43.6078 50.6231 42.3323 51.151 41 51.4821V54.8421H34.2632V51.4838C32.9313 51.152 31.6564 50.6235 30.4804 49.9158L28.1057 52.2905L23.3394 47.5276L25.7158 45.1528C25.0085 43.9762 24.4806 42.7007 24.1495 41.3684H20.7895V34.6316H24.1478C24.4796 33.2998 25.0081 32.0248 25.7158 30.8488L23.3411 28.4741L28.104 23.7078L30.4787 26.0842C31.6558 25.3762 32.9319 24.8477 34.2648 24.5162L34.2632 21.1579H41ZM37.6316 28.3158C35.0632 28.3158 32.5999 29.3361 30.7838 31.1522C28.9677 32.9684 27.9474 35.4316 27.9474 38C27.9474 40.5684 28.9677 43.0316 30.7838 44.8478C32.5999 46.6639 35.0632 47.6842 37.6316 47.6842C40.2 47.6842 42.6632 46.6639 44.4794 44.8478C46.2955 43.0316 47.3158 40.5684 47.3158 38C47.3158 35.4316 46.2955 32.9684 44.4794 31.1522C42.6632 29.3361 40.2 28.3158 37.6316 28.3158ZM37.6316 31.6842C39.3066 31.6842 40.9131 32.3496 42.0975 33.5341C43.282 34.7185 43.9474 36.3249 43.9474 38C43.9474 39.6751 43.282 41.2815 42.0975 42.4659C40.9131 43.6504 39.3066 44.3158 37.6316 44.3158C35.9565 44.3158 34.3501 43.6504 33.1656 42.4659C31.9812 41.2815 31.3158 39.6751 31.3158 38C31.3158 36.3249 31.9812 34.7185 33.1656 33.5341C34.3501 32.3496 35.9565 31.6842 37.6316 31.6842ZM37.6316 34.2105C36.6265 34.2105 35.6627 34.6098 34.952 35.3204C34.2414 36.0311 33.8421 36.995 33.8421 38C33.8421 39.005 34.2414 39.9689 34.952 40.6796C35.6627 41.3902 36.6265 41.7895 37.6316 41.7895C38.6366 41.7895 39.6005 41.3902 40.3111 40.6796C41.0218 39.9689 41.4211 39.005 41.4211 38C41.4211 36.995 41.0218 36.0311 40.3111 35.3204C39.6005 34.6098 38.6366 34.2105 37.6316 34.2105Z" fill="white"/>
</svg>
