<svg width="76" height="76" viewBox="0 0 76 76" fill="none" xmlns="http://www.w3.org/2000/svg">
<path fill-rule="evenodd" clip-rule="evenodd" d="M18.974 12H57.026C60.1463 12 61.2785 12.3255 62.4195 12.9345C63.5605 13.5453 64.4547 14.4395 65.0655 15.5805C65.6745 16.7215 66 17.8538 66 20.974V55.526C66 58.6462 65.6745 59.7785 65.0655 60.9195C64.4687 62.0468 63.5468 62.9687 62.4195 63.5655C61.2785 64.1745 60.1463 64.5 57.026 64.5H18.974C15.8538 64.5 14.7215 64.1745 13.5805 63.5655C12.4532 62.9687 11.5313 62.0468 10.9345 60.9195C10.3255 59.7785 10 58.6462 10 55.526V20.974C10 17.8538 10.3255 16.7215 10.9345 15.5805C11.5313 14.4532 12.4532 13.5313 13.5805 12.9345C14.7215 12.3255 15.8538 12 18.974 12V12Z" stroke="white" stroke-width="4"/>
<path d="M21.6675 57.5L31.0002 43.5L35.6666 50.5" stroke="white" stroke-width="2"/>
<path fill-rule="evenodd" clip-rule="evenodd" d="M17 33H59V57.5H17V33Z" stroke="white" stroke-width="2"/>
<path fill-rule="evenodd" clip-rule="evenodd" d="M43.25 40L55.5 57.5H31L43.25 40Z" stroke="white" stroke-width="2"/>
<path fill-rule="evenodd" clip-rule="evenodd" d="M18.75 17.25C19.6783 17.25 20.5685 17.6188 21.2249 18.2752C21.8813 18.9315 22.25 19.8218 22.25 20.75C22.25 21.6783 21.8813 22.5685 21.2249 23.2249C20.5685 23.8813 19.6783 24.25 18.75 24.25C17.8217 24.25 16.9315 23.8813 16.2751 23.2249C15.6187 22.5685 15.25 21.6783 15.25 20.75C15.25 19.8218 15.6187 18.9315 16.2751 18.2752C16.9315 17.6188 17.8217 17.25 18.75 17.25V17.25ZM29.25 17.25C30.1783 17.25 31.0685 17.6188 31.7249 18.2752C32.3813 18.9315 32.75 19.8218 32.75 20.75C32.75 21.6783 32.3813 22.5685 31.7249 23.2249C31.0685 23.8813 30.1783 24.25 29.25 24.25C28.3217 24.25 27.4315 23.8813 26.7751 23.2249C26.1187 22.5685 25.75 21.6783 25.75 20.75C25.75 19.8218 26.1187 18.9315 26.7751 18.2752C27.4315 17.6188 28.3217 17.25 29.25 17.25V17.25ZM39.75 17.25C40.6783 17.25 41.5685 17.6188 42.2249 18.2752C42.8813 18.9315 43.25 19.8218 43.25 20.75C43.25 21.6783 42.8813 22.5685 42.2249 23.2249C41.5685 23.8813 40.6783 24.25 39.75 24.25C38.8217 24.25 37.9315 23.8813 37.2751 23.2249C36.6187 22.5685 36.25 21.6783 36.25 20.75C36.25 19.8218 36.6187 18.9315 37.2751 18.2752C37.9315 17.6188 38.8217 17.25 39.75 17.25V17.25Z" stroke="white" stroke-width="2"/>
</svg>
