<svg width="76" height="76" viewBox="0 0 76 76" fill="none" xmlns="http://www.w3.org/2000/svg">
<path fill-rule="evenodd" clip-rule="evenodd" d="M40.1423 6.51371L64.533 20.5975C65.1159 20.934 65.6 21.4181 65.9365 22.001C66.273 22.5839 66.4502 23.2451 66.4502 23.9181V52.0819C66.4502 52.7549 66.273 53.4161 65.9365 53.999C65.6 54.5819 65.1159 55.066 64.533 55.4025L40.1423 69.4863C39.5594 69.8228 38.8982 70 38.2251 70C37.552 70 36.8908 69.8228 36.3079 69.4863L11.9172 55.4025C11.3343 55.066 10.8503 54.5819 10.5137 53.999C10.1772 53.4161 10 52.7549 10 52.0819V23.9181C10 23.2451 10.1772 22.5839 10.5137 22.001C10.8503 21.4181 11.3343 20.934 11.9172 20.5975L36.3079 6.51371C36.8908 6.17717 37.552 6 38.2251 6C38.8982 6 39.5594 6.17717 40.1423 6.51371V6.51371Z" stroke="white" stroke-width="4"/>
<path d="M25.7651 52.379H51.6455M25.8322 24.5795L32.1322 31.3587L25.8322 38.136V24.5795ZM46.8525 20.7451C48.1237 20.7451 49.3428 21.25 50.2417 22.1489C51.1405 23.0478 51.6455 24.2669 51.6455 25.5381C51.6455 26.8093 51.1405 28.0284 50.2417 28.9272C49.3428 29.8261 48.1237 30.3311 46.8525 30.3311C45.5813 30.3311 44.3622 29.8261 43.4633 28.9272C42.5645 28.0284 42.0595 26.8093 42.0595 25.5381C42.0595 24.2669 42.5645 23.0478 43.4633 22.1489C44.3622 21.25 45.5813 20.7451 46.8525 20.7451ZM34.5574 37.0413H51.6455H34.5574ZM25.7651 44.7101H51.6455H25.7651Z" stroke="white" stroke-width="2"/>
</svg>
