<svg width="76" height="76" viewBox="0 0 76 76" fill="none" xmlns="http://www.w3.org/2000/svg">
<path fill-rule="evenodd" clip-rule="evenodd" d="M38 59.2664C38 63.2233 33.4274 65.9107 29.2725 64.3953L22.2403 61.835C20.1785 61.0839 18.5393 59.6428 17.6859 57.8286L11.3222 44.3123C9.55925 40.5684 9.55925 36.2583 11.3222 32.5127L17.6859 18.998C18.5393 17.1839 20.1785 15.7428 22.2403 14.9917L29.2725 12.4281C33.4274 10.9143 38 13.6017 38 17.5586C38 13.6017 42.5709 10.9143 46.7275 12.4281L53.758 14.9917C55.8215 15.7428 57.459 17.1839 58.3141 18.998L64.6778 32.5127C66.4408 36.2583 66.4408 40.5684 64.6778 44.3123L58.3141 57.8286C57.459 59.6428 55.8215 61.0839 53.758 61.835L46.7275 64.3953C42.5709 65.9107 38 63.2233 38 59.2664Z" stroke="white" stroke-width="4"/>
<path d="M34.7883 51.6188H46.1903M46.1903 24.7941C46.1903 26.6165 47.6694 28.0956 49.4918 28.0956C51.3142 28.0956 52.7933 26.6165 52.7933 24.7941C52.7933 22.9717 51.3142 21.4926 49.4918 21.4926C47.6694 21.4926 46.1903 22.9717 46.1903 24.7941ZM46.1903 51.6188C46.1903 53.4412 47.6694 54.9203 49.4918 54.9203C51.3142 54.9203 52.7933 53.4412 52.7933 51.6188C52.7933 49.7964 51.3142 48.3173 49.4918 48.3173C47.6694 48.3173 46.1903 49.7964 46.1903 51.6188ZM51.1425 36.762C51.1425 38.5845 52.6216 40.0635 54.444 40.0635C56.2665 40.0635 57.7455 38.5845 57.7455 36.762C57.7455 34.9396 56.2665 33.4605 54.444 33.4605C52.6216 33.4605 51.1425 34.9396 51.1425 36.762ZM35.8892 31.3971H46.1903C48.0127 31.3971 49.4918 29.918 49.4918 28.0956L35.8892 31.3971ZM40.7332 36.762H51.1425H40.7332ZM26.3813 38.4128C26.3813 40.2352 24.9022 41.7143 23.0798 41.7143C21.2574 41.7143 19.7783 40.2352 19.7783 38.4128C19.7783 36.5904 21.2574 35.1113 23.0798 35.1113C24.9022 35.1113 26.3813 36.5904 26.3813 38.4128ZM31.3336 25.2068C31.3336 27.0292 29.8545 28.5083 28.0321 28.5083C26.2096 28.5083 24.7306 27.0292 24.7306 25.2068C24.7306 23.3844 26.2096 21.9053 28.0321 21.9053C29.8545 21.9053 31.3336 23.3844 31.3336 25.2068ZM29.6828 52.8568C29.6828 54.6793 28.2037 56.1583 26.3813 56.1583C24.5589 56.1583 23.0798 54.6793 23.0798 52.8568C23.0798 51.0344 24.5589 49.5553 26.3813 49.5553C28.2037 49.5553 29.6828 51.0344 29.6828 52.8568ZM26.3813 38.4128H36.3121H26.3813ZM26.3813 49.5553C26.3813 46.8201 28.5983 44.6031 31.3336 44.6031H40.7332L26.3813 49.5553ZM29.6828 28.5083C30.769 30.679 31.3336 33.0743 31.3336 35.5009V38.4128L29.6828 28.5083ZM44.5396 36.762V38.0133C44.5396 42.4967 46.3207 45.1462 49.4918 48.3173L44.5396 36.762Z" stroke="white" stroke-width="1.5"/>
</svg>
