<svg width="76" height="76" viewBox="0 0 76 76" fill="none" xmlns="http://www.w3.org/2000/svg">
<path fill-rule="evenodd" clip-rule="evenodd" d="M27.853 6H48.6438C51.3738 6 52.3644 6.28478 53.3611 6.81761C54.3594 7.35196 55.1433 8.13435 55.6762 9.13263C56.2105 10.1309 56.4953 11.1215 56.4953 13.8515V62.1485C56.4953 64.8785 56.2105 65.8691 55.6762 66.8674C55.154 67.8537 54.3475 68.6603 53.3611 69.1824C52.3644 69.7152 51.3738 70 48.6438 70H27.8515C25.1215 70 24.1309 69.7152 23.1342 69.1824C22.1478 68.6603 21.3413 67.8537 20.8191 66.8674C20.2848 65.8691 20 64.8785 20 62.1485V13.8515C20 11.1215 20.2848 10.1309 20.8191 9.13263C21.3413 8.14631 22.1478 7.33973 23.1342 6.81761C24.1309 6.28478 25.1215 6 27.8515 6H27.853Z" stroke="white" stroke-width="2.5"/>
<path d="M46.669 15.0335H29.8268C28.1356 15.0335 26.7646 16.4045 26.7646 18.0957V59.4355C26.7646 61.1267 28.1356 62.4977 29.8268 62.4977H46.669C48.3602 62.4977 49.7312 61.1267 49.7312 59.4355V18.0957C49.7312 16.4045 48.3602 15.0335 46.669 15.0335Z" stroke="white" stroke-width="2.5" stroke-linejoin="round"/>
<path d="M45.0094 6H31.4852C30.6396 6 29.9541 6.6855 29.9541 7.5311V7.83732C29.9541 8.68292 30.6396 9.36842 31.4852 9.36842H45.0094C45.855 9.36842 46.5405 8.68292 46.5405 7.83732V7.5311C46.5405 6.6855 45.855 6 45.0094 6Z" stroke="white" stroke-width="1.5"/>
</svg>
