<svg width="64" height="64" viewBox="0 0 64 64" fill="none" xmlns="http://www.w3.org/2000/svg">
<path d="M32.0639 41.2386C35.4474 41.2386 37.9616 39.1165 37.9616 36.2614C37.9616 34.0455 36.6491 32.4347 34.4503 32.0682V31.9318C36.2145 31.3949 37.3139 29.946 37.3139 27.9773C37.3139 25.5057 35.3622 23.3068 32.1321 23.3068C29.1151 23.3068 26.6094 25.1648 26.5071 27.9091H28.5526C28.6293 26.1705 30.2827 25.1477 32.098 25.1477C34.0241 25.1477 35.2685 26.3153 35.2685 28.0795C35.2685 29.9205 33.8281 31.1136 31.7571 31.1136H30.3594V32.9886H31.7571C34.4077 32.9886 35.8821 34.3352 35.8821 36.2614C35.8821 38.1108 34.2713 39.3636 32.0298 39.3636C30.0099 39.3636 28.4077 38.3239 28.2798 36.6364H26.1321C26.2599 39.3807 28.6804 41.2386 32.0639 41.2386Z" fill="white"/>
<path d="M5.28719 16.5774L32 1.1547L58.7128 16.5774V47.4226L32 62.8453L5.28719 47.4226V16.5774Z" stroke="white" stroke-width="2"/>
</svg>
