<svg width="64" height="64" viewBox="0 0 64 64" fill="none" xmlns="http://www.w3.org/2000/svg">
<path d="M26.5412 41H37.5526V39.125H29.4389V38.9886L33.3594 34.7955C36.3594 31.5824 37.2457 30.0824 37.2457 28.1477C37.2457 25.4545 35.0639 23.3068 31.9957 23.3068C28.9361 23.3068 26.6094 25.3864 26.6094 28.4545H28.6207C28.6207 26.4688 29.9077 25.1477 31.9276 25.1477C33.8196 25.1477 35.2685 26.3068 35.2685 28.1477C35.2685 29.7585 34.3224 30.9517 32.3026 33.1591L26.5412 39.4659V41Z" fill="white"/>
<path d="M5.28719 16.5774L32 1.1547L58.7128 16.5774V47.4226L32 62.8453L5.28719 47.4226V16.5774Z" stroke="white" stroke-width="2"/>
</svg>
