<svg width="24" height="24" viewBox="0 0 24 24" fill="none" xmlns="http://www.w3.org/2000/svg">
<path fill-rule="evenodd" clip-rule="evenodd" d="M12 0C5.37258 0 0 5.37258 0 12C0 18.6274 5.37258 24 12 24C18.6274 24 24 18.6274 24 12C24 5.37258 18.6274 0 12 0ZM11.6658 10.1688L11.6406 9.75355C11.5651 8.67735 12.2282 7.69437 13.2774 7.31304C13.6635 7.17745 14.3182 7.1605 14.7463 7.27914C14.9142 7.32998 15.2331 7.49946 15.4598 7.652L15.8711 7.93164L16.3243 7.78758C16.5761 7.71132 16.9119 7.58421 17.063 7.49946C17.2057 7.4232 17.3316 7.38083 17.3316 7.40625C17.3316 7.55031 17.021 8.0418 16.7608 8.31297C16.4083 8.6943 16.509 8.7282 17.2224 8.47398C17.6505 8.32992 17.6589 8.32992 17.575 8.49092C17.5246 8.57567 17.2644 8.87226 16.9874 9.14342C16.5174 9.6095 16.4922 9.66034 16.4922 10.0501C16.4922 10.6518 16.2068 11.906 15.9214 12.5924C15.3926 13.8804 14.2595 15.2108 13.1263 15.8803C11.5315 16.8209 9.40786 17.0582 7.61999 16.5074C7.02404 16.3209 6 15.8464 6 15.7616C6 15.7362 6.31057 15.7023 6.68829 15.6938C7.4773 15.6769 8.26631 15.4566 8.93781 15.0668L9.39108 14.7956L8.87066 14.6176C8.13201 14.3634 7.46891 13.7787 7.30103 13.2279C7.25067 13.0499 7.26746 13.0415 7.73751 13.0415L8.22434 13.033L7.81305 12.8381C7.32621 12.5924 6.88134 12.1771 6.66311 11.7534C6.50362 11.4484 6.30218 10.6772 6.36093 10.6179C6.37772 10.5925 6.55399 10.6433 6.75544 10.7111C7.33461 10.923 7.41015 10.8721 7.0744 10.5162C6.44487 9.87219 6.25181 8.91463 6.55399 8.00791L6.69668 7.60115L7.25067 8.15196C8.38383 9.26206 9.71843 9.92303 11.2461 10.1179L11.6658 10.1688Z" fill="white"/>
</svg>
