<svg height="80" width="140" xmlns="http://www.w3.org/2000/svg"><path d="M94.2163 49.0896c.6072.8418.4858 1.9241-.243 2.5254-.8501.6013-2.0646.481-2.6719-.2405l-4.2508-5.4116-4.1293 5.2913c-.6073.8418-1.8218.8418-2.672.2405-.8501-.6012-.9716-1.6836-.3643-2.5254l4.858-6.2534-4.858-6.2534c-.6073-.8418-.3644-2.0444.3643-2.6457.8502-.6013 2.0647-.3608 2.672.3608l4.1293 5.4116 4.2508-5.1711c.6073-.8418 1.7004-.962 2.672-.3608.8501.6013.8501 1.8039.2429 2.6457l-4.7366 6.1332zM72.112 48.368c-3.1578 0-5.7082-2.4051-5.7082-5.5318 0-3.0065 2.5504-5.532 5.7082-5.532 3.1577 0 5.7082 2.5255 5.7082 5.532-.1214 3.1267-2.672 5.5318-5.7082 5.5318zm-16.7603 0c-3.1578 0-5.7083-2.4051-5.7083-5.5318 0-3.0065 2.5505-5.532 5.7083-5.532 3.1577 0 5.7082 2.5255 5.7082 5.532 0 3.1267-2.5505 5.5318-5.7082 5.5318zM72.112 33.6965c-3.5221 0-6.6799 1.9242-8.2587 4.8104-1.5789-2.8862-4.7366-4.8104-8.3802-4.8104-2.1861 0-4.1293.7216-5.7082 1.8039v-7.6965c0-.962-.8502-1.8039-1.8218-1.8039C46.8502 26 46 26.8418 46 27.8039v15.1525c.1215 5.0509 4.2508 9.0194 9.3518 9.0194 3.6435 0 6.8013-2.0444 8.3801-4.9306 1.5789 2.8862 4.7366 4.9306 8.2587 4.9306 5.2224 0 9.4733-4.0888 9.4733-9.2599.1214-4.9306-4.1294-9.0194-9.3518-9.0194z" fill="#0062d6"/></svg>