<svg height="80" width="140" xmlns="http://www.w3.org/2000/svg"><g fill="none" fill-rule="evenodd"><path d="M88.0731 46.0434l1.7006 1.7006c1.4674-1.4674 2.2012-3.3943 2.2012-5.3211H89.568c0 1.3097-.4937 2.6262-1.4949 3.6205z" fill="#ee783d"/><path d="M88.0731 38.8091l1.7006-1.7005c-1.4674-1.4675-3.3943-2.2012-5.3211-2.2012v2.4069c1.3097-.0069 2.6263.4937 3.6205 1.4948z" fill="#1aa8b7"/><path d="M89.7737 37.1086l-1.7006 1.7005c.9943.9943 1.4949 2.3109 1.4949 3.6206h2.4069c0-1.9268-.7338-3.8537-2.2012-5.3211z" fill="#ecc31c"/><path d="M80.8389 46.0434c-1.9955-1.9954-1.9955-5.2457 0-7.2411l-1.7006-1.6937c-2.9349 2.9348-2.9349 7.7005 0 10.6354 2.9348 2.9349 7.7006 2.9349 10.6354 0l-1.7006-1.7006c-1.9954 1.9955-5.2388 1.9955-7.2342 0z" fill="#b8c0bf"/><path d="M84.4526 37.3074v-2.4068c-1.9269 0-3.8469.7337-5.3212 2.2011l1.7006 1.7006a5.1258 5.1258 0 0 1 3.6206-1.4949z" fill="#0f5c7d"/><path d="M65.0057 37.1086c-1.4674-1.4675-3.3943-2.2012-5.3211-2.2012-1.9269 0-3.8469.7337-5.3212 2.2012-2.9348 2.9348-2.9348 7.7005 0 10.6354 2.9349 2.9349 7.7006 2.9349 10.6355 0 1.4674-1.4674 2.2011-3.3943 2.2011-5.3211 0-1.9269-.7269-3.8469-2.1943-5.3143zm-8.9417 8.9348c-1.9954-1.9954-1.9954-5.2457 0-7.2411 1.0011-.9943 2.3109-1.4949 3.6206-1.4949s2.6194.5006 3.6205 1.4949c.9943.9943 1.4949 2.3108 1.4949 3.6206a5.1258 5.1258 0 0 1-1.4949 3.6205c-1.9954 1.9955-5.2457 1.9955-7.2411 0zM73.2754 27.207c0-.6652-.5417-1.2069-1.2068-1.2069-.6652 0-1.2.5417-1.2 1.2v21.2983c0 .6651.5348 1.2 1.2 1.2.6651 0 1.2-.5417 1.2-1.2V27.2069zM49.4537 46.489c0-.6171-.5006-1.1177-1.1177-1.1177-.3429 0-.6446.1509-.8503.3909-.8914 1.0628-2.1463 1.872-4.1074 1.872-3.024 0-4.9097-2.2697-4.9097-5.2869 0-3.024 1.8857-5.2868 4.9097-5.2868 1.7828 0 3.024.6857 3.8811 1.8171.1989.2812.5349.4663.9052.4663.6171 0 1.1108-.5006 1.1108-1.1109 0-.2948-.1165-.5622-.3017-.7611-1.3028-1.5771-3.0583-2.544-5.5954-2.544-4.1829 0-7.3783 3.264-7.3783 7.4194 0 4.1555 3.1954 7.3852 7.3851 7.3852 2.592 0 4.4092-.8915 5.7395-2.448.2057-.1989.3291-.48.3291-.7955zm54.2537-11.2868c-.4457-.1577-.96-.24-1.5771-.24-1.68 0-3.2023.912-4.1486 2.6606l.0617-1.7486v-.0412c0-.6651-.5417-1.2-1.2-1.2-.6651 0-1.2.5349-1.2 1.2v12.672c0 .6652.5349 1.2 1.2 1.2.6652 0 1.2-.5417 1.2-1.2v-5.4994c0-3.3326 1.6457-5.808 3.6755-5.808.72 0 1.5154.288 1.6937.288a1.1647 1.1647 0 0 0 1.1657-1.1657c-.0069-.5349-.3772-.9874-.8709-1.1177z" fill="#b8c0bf" fill-rule="nonzero"/></g></svg>