<svg height="80" width="140" xmlns="http://www.w3.org/2000/svg"><g fill="#4a89dc" fill-rule="evenodd"><path d="M70.281 38.773c.066-1.269.521-2.306 1.232-3.115V34.58h-.945c-1.91 0-3.527.732-4.467 2.386h-.055v-2.204h-4.899v13.441h4.9v-5.426c0-2.303.674-4.059 3.393-4.059.296.002.573.019.841.055zm37.099-.049c.407-1.188 1.067-2.246 1.925-3.095v-1.05h-.943c-1.911 0-3.526.732-4.471 2.385h-.053v-2.202h-4.902v13.441h4.902v-5.426c0-2.303.676-4.059 3.395-4.059zm-27.148-.504c-.756-.393-1.808-.655-2.645-.655-.562 0-1.533.234-1.533.917 0 .918 1.533 1.048 2.211 1.182 2.284.444 4.012 1.493 4.012 3.979 0 3.536-3.313 5.008-6.52 5.008-1.967 0-3.902-.551-5.574-1.547l1.777-3.33c.995.684 2.665 1.363 3.877 1.363.62 0 1.535-.287 1.535-1.021 0-1.048-1.535-1.103-3.072-1.495-1.533-.393-3.066-1.125-3.066-3.536 0-3.302 3.066-4.767 6.088-4.767 1.562 0 3.125.235 4.549.864z"/><path d="M124 48.203h-4.9v-1.495h-.054c-.862 1.336-2.562 1.938-4.175 1.938-4.096 0-6.975-3.328-6.975-7.18 0-3.848 2.828-7.151 6.92-7.151 1.588 0 3.26.576 4.283 1.754v-1.307h4.899zm-11.041-6.708c0 1.702 1.16 3.012 3.15 3.012 1.992 0 3.147-1.308 3.147-3.012 0-1.651-1.155-3.039-3.147-3.039-1.99.001-3.15 1.388-3.15 3.039zm-14.796.788H87.846c0 1.937 1.053 2.984 3.072 2.984 1.05 0 1.803-.339 2.343-1.231h4.714c-.781 3.171-3.879 4.612-7.029 4.612-4.575 0-7.995-2.517-7.995-7.152 0-4.48 3.147-7.178 7.644-7.178 4.793 0 7.57 2.883 7.57 7.466zm-4.552-2.753c-.243-1.284-1.455-2.122-2.773-2.122-1.429 0-2.609.731-2.91 2.122z" fill-rule="nonzero"/><path d="M45.561 41.261a9.7665 9.7665 0 0 0-.022-.344v-.002-.002c-.11-1.247-.522-2.414-1.221-3.468-.312-.47-.669-.897-1.068-1.28-.583-.561-1.258-1.025-2.019-1.392-1.145-.547-2.41-.823-3.76-.823-.132 0-.27.002-.409.007-.948.043-1.865.223-2.727.54-.869.314-1.626.729-2.245 1.227-.126.1-.263.223-.41.358l-.106.104-.145.154h.002l-.068.067-.033.036-.173.182c-.128.144-.25.288-.364.429l-.001-.002-.004-.004c-.237.288-.456.586-.617.854-.109.172-.216.349-.318.526l-1.413 2.857.002.002-.074.145-.156.316c-.31.627-.642 1.252-1.013 1.768-.827.907-1.762 1.351-2.964 1.351-.084 0-.17-.004-.258-.009-.724-.029-1.345-.2-1.896-.526a3.5633 3.5633 0 0 1-.171-.108c-.45-.299-.795-.683-1.053-1.162-.291-.543-.42-1.098-.402-1.686.001-.016.002-.03.002-.043.039-.936.396-1.664 1.115-2.293.175-.151.358-.279.549-.393.027-.016.054-.031.081-.045.534-.291 1.142-.436 1.839-.436l.217.006c1.107.042 1.961.388 2.642 1.063l2.136-3.835c-.511-.342-1.088-.636-1.724-.875-.024-.009-.049-.019-.074-.027-.076-.027-.151-.055-.229-.08-.676-.226-1.385-.365-2.115-.428-.018-.003-.038-.005-.056-.007-.112-.007-.226-.021-.338-.026-.122-.005-.245-.007-.365-.008h-.069c-1.343.005-2.591.28-3.732.825-1.278.616-2.314 1.513-3.082 2.669-.766 1.156-1.184 2.439-1.244 3.816-.005.118-.008.235-.008.35-.001 1.926.701 3.62 2.097 5.042 1.457 1.492 3.352 2.296 5.627 2.391.146.006.29.01.434.01 1.287 0 2.478-.229 3.546-.687.267-.114.526-.248.791-.397.144-.083.28-.171.415-.265l.1-.067.168-.115c.202-.145.391-.302.575-.469l.064-.061c.108-.103.216-.207.318-.314l.383-.433.146-.183.068-.1.068-.098c.569-.956 2.421-4.435 2.421-4.435v-.007l.11-.212.092-.166c.273-.497.47-.85.731-1.221l.007-.011c.609-.883 1.656-1.512 2.89-1.618 2.07-.178 3.884 1.182 4.051 3.038.166 1.856-1.378 3.505-3.448 3.684-.431.037-.85.008-1.245-.079l-.01.004c-1.519-.316-2.486-1.424-2.963-1.919l-1.992 3.663s.619.624 1.043.936c.425.311.974.617 1.412.807 1.063.454 2.219.726 3.496.726.148 0 .118 0 .272-.006 2.273-.095 4.299-.966 5.76-2.458 1.384-1.417 2.135-3.035 2.142-4.95v-.057c-.001-.106-.004-.213-.008-.321zm7.62 7.396c-1.033 0-1.97-.12-2.811-.36s-1.559-.619-2.154-1.139c-.597-.52-1.057-1.182-1.381-1.985s-.486-1.771-.486-2.899v-7.515h4.727v7.455c0 .845.202 1.457.605 1.839.404.383.917.574 1.539.574.636 0 1.152-.178 1.55-.535.396-.357.596-.949.596-1.781v-7.552h4.727v7.416c0 1.168-.166 2.161-.497 2.978-.331.818-.798 1.486-1.399 2.006-.604.52-1.331.898-2.186 1.139-.855.239-1.798.359-2.83.359z"/></g></svg>