<svg width="32" height="32" viewBox="0 0 32 32" fill="none" xmlns="http://www.w3.org/2000/svg">
<path fill-rule="evenodd" clip-rule="evenodd" d="M15.8253 3L26.6506 9.25V21.75L15.8253 28L5 21.75V9.25L15.8253 3ZM9.92157 8.71793L15.8253 5.3094L24.6506 10.4047V11.3886L21.17 13.3222L21.0853 18.4553L16.6606 20.6675V23.4284L23.066 19.6432L23.1511 14.482L24.6506 13.6724V20.5953L15.8253 25.6906L7 20.5953V13.7462L8.56016 14.5886L8.64533 19.7498L15.0507 23.5349L15.0507 21L10.626 18.5618L10.5413 13.4288L7 11.417V10.4047L7.94509 9.85905L11.3181 11.6478L15.8057 9.15465L20.3105 11.8575L22.3252 10.5L15.8442 6.84535L11.3319 9.3522L9.92157 8.71793Z" fill="#2E9DCD"/>
</svg>
