<svg height="80" width="140" xmlns="http://www.w3.org/2000/svg"><g fill="none"><path d="M13.71 42.2725l-.135-1.35h12.1275l-.135 1.35zm.0675.81l.36 4.0275c.09 1.035 1.0125 1.89 2.07 1.89h6.84c1.0575 0 1.98-.855 2.07-1.89l.36-4.0275zm-.3825-4.2975l.135 1.35h12.2625l.135-1.35zm-.0675-.81l-.45-4.815v-.0225H26.445v.0225l-.45 4.815zm-1.305-6.3225c-.09-.36.1575-.6525.5175-.6525h14.1975c.36 0 .6075.2925.54.6525v.0225c-.0675.3825-.4275.675-.7875.675H12.8325c-.3825 0-.7425-.2925-.81-.6525z" fill="#ff004d"/><path d="M31.9125 45.85h3.195v-4.365h4.095v4.365h3.1725V34.3525H39.18V38.65h-4.095v-4.2975h-3.1725zm16.8525.2025c2.8575 0 4.9275-2.115 4.9275-4.6575v-.0225c0-2.52-2.0475-4.6125-4.905-4.6125-2.835 0-4.905 2.115-4.905 4.6575v.0225c0 2.5425 2.07 4.6125 4.8825 4.6125zm.045-2.6325c-1.1025 0-1.89-.9225-1.89-2.0025v-.0225c0-1.08.72-1.98 1.845-1.98 1.1025 0 1.9125.9225 1.9125 2.025v.0225c0 1.0575-.7425 1.9575-1.8675 1.9575zm9.18 2.6325c1.26 0 2.0925-.6975 2.655-1.44V45.85h3.105v-8.8875h-3.105v4.815c0 .9675-.5625 1.485-1.305 1.485-.765 0-1.26-.5175-1.26-1.485v-4.815h-3.1275v5.805c0 2.025 1.1475 3.285 3.0375 3.285zm10.9575 0c2.16 0 3.6225-1.0125 3.6225-2.97V43.06c0-1.7325-1.395-2.34-3.15-2.835-.9225-.27-1.44-.45-1.44-.7875v-.0225c0-.27.2475-.45.72-.45.6975 0 1.71.315 2.6325.8325l1.0575-1.98c-1.0125-.6525-2.3625-1.035-3.6675-1.035-2.0475 0-3.555 1.0575-3.555 2.9475v.0225c0 1.7775 1.395 2.3625 3.15 2.835.945.27 1.44.405 1.44.765v.0225c0 .315-.27.4725-.81.4725-.9225 0-2.025-.3375-3.0375-1.0125l-1.17 1.8675c1.2375.9 2.7225 1.35 4.2075 1.35zm9.3375 0c1.755 0 2.9925-.72 3.8475-1.8l-1.7325-1.44c-.63.63-1.215.9-1.98.9-.9675 0-1.665-.495-1.9125-1.4625h5.94c.0225-.2025.0225-.45.0225-.63 0-2.61-1.4175-4.86-4.4775-4.86-2.6325 0-4.4775 2.0475-4.4775 4.6575v.0225c0 2.745 1.98 4.6125 4.77 4.6125zm-1.8225-5.3775c.1575-.99.72-1.62 1.5525-1.62.855 0 1.44.63 1.5525 1.62zm7.3575 7.8075h3.1275V44.77c.585.675 1.3725 1.2825 2.7 1.2825 2.0925 0 3.915-1.755 3.915-4.6575v-.0225c0-2.835-1.8225-4.59-3.9375-4.59-1.3275 0-2.0925.63-2.7 1.3725v-1.1925h-3.1275v11.52zm4.8825-5.04c-1.0125 0-1.8225-.8325-1.8225-2.025v-.0225c0-1.1925.81-2.025 1.8225-2.025s1.8225.8325 1.8225 2.025v.0225c0 1.1925-.8325 2.025-1.8225 2.025zm8.775 2.61c1.17 0 2.0025-.45 2.6325-1.125v.9225h3.0825v-5.1075c0-1.2375-.27-2.16-.945-2.835-.6975-.6975-1.8-1.08-3.375-1.08-1.53 0-2.5875.27-3.6.6975l.63 2.1825c.81-.2925 1.53-.495 2.475-.495 1.1925 0 1.7775.5175 1.7775 1.4625v.1575c-.5175-.2025-1.305-.3375-2.1375-.3375-2.0925 0-3.4875.945-3.4875 2.79v.0225c-.0225 1.755 1.26 2.745 2.9475 2.745zM98.58 44.095c-.63 0-1.1025-.36-1.1025-.9675v-.0225c0-.675.5175-1.1025 1.44-1.1025.45 0 .9.09 1.2375.225v.405c0 .8775-.6525 1.4625-1.575 1.4625zm6.1875 1.755h3.1275v-2.7675c0-2.0475.9225-2.97 2.5425-2.97h.27v-3.285c-1.485-.0675-2.295.72-2.8125 1.935v-1.8h-3.1275zm10.5525.18c.8775 0 1.62-.2025 2.16-.5175v-2.43c-.3825.18-.765.2925-1.1925.2925-.585 0-.855-.27-.855-.8775V39.46h2.07v-2.4975h-2.07v-2.25H112.35v2.25h-1.0575V39.46h1.0575v3.6225c0 2.1375 1.1025 2.9475 2.97 2.9475zm7.9425-3.7125l-1.7775-5.355h-3.2625l3.4875 8.73c-.2025.27-.4275.36-.7425.36-.3375 0-.855-.18-1.3725-.4725l-.945 2.1825c.81.4725 1.7325.765 2.835.765 1.7775 0 2.61-.81 3.375-2.88l3.2625-8.6625h-3.195z" fill="#000" fill-opacity=".8"/></g></svg>