<svg height="80" width="140" xmlns="http://www.w3.org/2000/svg"><g fill="none" fill-rule="evenodd"><path d="M28.174 37.8229c1.3011 1.3073 2.3653 3.448 1.7563 4.72-1.6285 3.4014-13.7799 9.3674-14.8118 8.3345-1.032-1.032 4.9372-13.1876 8.3396-14.817 1.272-.609 3.4128.4551 4.7211 1.7562-.001.001-.002.0031-.0052.0063z" fill="#ff8200"/><g fill="#43b02a" fill-rule="nonzero"><path d="M34.6119 36.3867c-.211-.7825-.7503-1.5734-1.5557-1.667-1.4767-.1714-3.8035 2.4391-3.6372 3.0585.1663.6193 3.4543 1.7115 4.6816.8293.6329-.4552.7223-1.4383.5144-2.2208zm-4.5694-7.2319c1.0964.2973 2.2052 1.0528 2.3361 2.1813.2411 2.0701-3.419 5.3332-4.2877 5.1005-.8688-.2328-2.3995-4.8427-1.1618-6.5647.638-.8875 2.016-1.0122 3.1145-.7212-.001 0-.001.002-.001.0041zM62.7386 41.4085l-1.087-.1652c-1.036-.1528-1.6357-.4884-1.6357-1.0984 0-.7005.7805-1.1349 1.934-1.1349.8158 0 1.4798.3056 2.1158.6298l.1268.0644c.1465.0749.3045.1123.4676.1123.3773 0 .7254-.2048.9073-.5352l.0883-.16a1.0573 1.0573 0 0 0 .0842-.8283 1.0476 1.0476 0 0 0-.5363-.6318c-.9259-.4635-1.9308-.8803-3.2547-.8803-2.7664 0-4.5476 1.3354-4.5476 3.4855 0 1.7646 1.2678 2.8714 3.6684 3.1987l1.0963.1424c1.1588.1621 1.722.505 1.722 1.0486 0 .5019-.2712 1.168-2.066 1.168-.9893 0-1.9942-.2515-2.81-.768a1.0153 1.0153 0 0 0-.5424-.158c-.3585 0-.6984.1903-.8875.4958l-.0613.0987a1.0722 1.0722 0 0 0-.1258.8262c.0718.2795.2484.5102.4978.6495 1.4217.7991 3.0636 1.0828 3.9282 1.0828 2.8838 0 4.6681-1.2636 4.6681-3.4875.0032-1.777-1.2605-2.7976-3.7505-3.155zm33.528 3.8846a1.0996 1.0996 0 0 0-.819-.3658c-.2109 0-.4167.0603-.5964.1735-.5872.372-1.2294.5695-1.8602.5695-1.7324 0-2.9898-1.3686-2.9898-3.2537 0-1.8852 1.2574-3.2538 2.9898-3.2538.665 0 1.2605.1808 1.8196.5529.4334.2878 1.0548.214 1.4113-.1663l.0925-.0987a1.205 1.205 0 0 0 .318-.9675 1.1834 1.1834 0 0 0-.5207-.8511c-.8521-.5654-1.908-.8636-3.0542-.8636-3.3255 0-5.648 2.3226-5.648 5.647 0 3.3255 2.3225 5.6481 5.648 5.6481 1.1514 0 2.2135-.3045 3.0719-.8812a1.1912 1.1912 0 0 0 .5186-.845 1.2054 1.2054 0 0 0-.2983-.955zM42.4523 32.9484c-.8657 0-1.5432.6869-1.5432 1.563 0 .8801.663 1.5431 1.5432 1.5431.876 0 1.563-.6775 1.563-1.5432 0-.876-.687-1.563-1.563-1.563zm.4666 3.9126h-.9103a.8076.8076 0 0 0-.8075.8074v9.3134c0 .4458.3616.8075.8075.8075h.9103a.8076.8076 0 0 0 .8075-.8075v-9.3134a.8076.8076 0 0 0-.8075-.8074zm29.8907 8.7605c-1.0215-.0042-2.2094-.8044-2.2094-2.2063v-4.2015h2.2167a.8076.8076 0 0 0 .8074-.8074v-.7379a.8076.8076 0 0 0-.8074-.8074h-2.2167v-2.4245a.8076.8076 0 0 0-.8074-.8075h-.9602a.8076.8076 0 0 0-.8075.8075v8.828c0 2.542 1.9288 4.7887 4.5995 4.7887h.001c.2661 0 .5176-.1039.7078-.294a.9954.9954 0 0 0 .294-.7078v-.6225c-.002-.4479-.3689-.8053-.8178-.8074zm-22.0624-8.852c-3.2319 0-5.035 2.5856-5.035 4.797v5.4153c0 .4458.3617.8075.8076.8075h.9207a.8076.8076 0 0 0 .8075-.8075v-5.009c0-1.6773 1.0163-2.7882 2.4982-2.7882 1.482 0 2.4983 1.111 2.4983 2.7882v5.009c0 .4458.3616.8075.8074.8075h.9208a.8076.8076 0 0 0 .8074-.8075v-5.4153c.0021-2.2125-1.7999-4.797-5.0329-4.797zm66.4854.1122c-.3503-.0769-1.2284-.1122-1.6836-.1122-.0405 0-.081.001-.1205.001-2.5024 0-4.8136 2.04-4.8136 4.8521 0 .002-.001.0052-.001.0073v5.3519c0 .4458.3616.8075.8074.8075h.9207a.8076.8076 0 0 0 .8075-.8075v-5.2667c0-1.5308 1.0933-2.5294 2.4328-2.5294.2452.0041.5082.0311.7659.082a1.13 1.13 0 0 0 .213.0209c.5113 0 .954-.3534 1.0735-.8501.0655-.2733.1143-.476.16-.662s.0146-.396-.0914-.5664a.7408.7408 0 0 0-.4707-.3284zm6.7538 2.332a.8076.8076 0 0 0 .8074-.8074v-.7379a.8076.8076 0 0 0-.8074-.8074h-2.2167v-2.4245c0-.4458-.3616-.8075-.8085-.8075h-.9602a.8076.8076 0 0 0-.8075.8075v8.828c0 2.542 1.9288 4.7887 4.5996 4.7887h.001c.267 0 .5175-.1039.7077-.294a.9954.9954 0 0 0 .2941-.7078v-.6225c0-.4489-.3668-.8064-.8158-.8074-1.0215-.0042-2.2093-.8044-2.2093-2.2063v-4.2015zm-17.5751-1.5775c-.001-.001-.0031-.002-.0042-.0031-.8521-.5653-1.908-.8636-3.0542-.8636-.0197 0-.0395.001-.0592.001-.0198 0-.0395-.001-.0593-.001-1.1462 0-2.203.2983-3.0542.8636-.001.001-.0031.002-.0041.0031-1.534.9654-2.4702 2.6708-2.4702 4.7814 0 2.2104 1.0277 3.977 2.6926 4.9134.7762.4583 1.698.7316 2.6915.7326 1.8144.001 2.9108-1.0267 3.2548-1.4757v.3866c0 .4458.3616.8075.8075.8075h.9207a.8076.8076 0 0 0 .8075-.8075v-4.558c.001-2.1106-.9353-3.8159-2.4692-4.7803zm-2.1034 7.8647c-.295.0977-.5954.1538-.8937.1663-.0218.001-.0436.001-.0654.002-.0187 0-.0364.0011-.0551.0011s-.0364-.001-.0551-.001a3.274 3.274 0 0 1-.9592-.1684c-1.191-.4209-1.9818-1.589-1.9818-3.0843 0-1.7646 1.1026-3.0771 2.6646-3.2372.0083-.001.0166-.001.025-.002.0352-.0032.0706-.0063.107-.0084l.0602-.003c.0343-.0011.0697-.0022.104-.0022.0124 0 .0238-.001.0363-.001.0125 0 .024 0 .0364.001.0353 0 .0696.001.104.0021l.0602.0031c.0353.0021.0717.0042.107.0084.0083.001.0167.001.025.002 1.5619.16 2.6645 1.4716 2.6645 3.2372-.002 1.4943-.793 2.6634-1.9839 3.0843zm-20.8828-7.8647c-.001-.001-.0031-.002-.0042-.0031-.8521-.5653-1.908-.8636-3.0542-.8636-.0197 0-.0395.001-.0592.001-.0198 0-.0395-.001-.0593-.001-1.1462 0-2.203.2983-3.0542.8636-.001.001-.0031.002-.0041.0031-1.534.9654-2.4702 2.6708-2.4702 4.7814 0 2.2104 1.0277 3.977 2.6925 4.9134.7763.4583 1.6981.7316 2.6916.7326 1.8144.001 2.9108-1.0267 3.2548-1.4757v.3866c0 .4458.3616.8075.8074.8075h.9208a.8076.8076 0 0 0 .8074-.8075v-4.558c.001-2.1106-.9352-3.8159-2.4691-4.7803zm-2.1034 7.8647c-.2951.0977-.5954.1538-.8937.1663-.0218.001-.0436.001-.0654.002-.0188 0-.0364.0011-.0551.0011s-.0364-.001-.0551-.001a3.274 3.274 0 0 1-.9592-.1684c-1.191-.4209-1.9818-1.589-1.9818-3.0843 0-1.7646 1.1026-3.0771 2.6646-3.2372.0083-.001.0166-.001.025-.002.0352-.0032.0706-.0063.107-.0084l.0602-.003c.0343-.0011.0696-.0022.104-.0022.0124 0 .0238-.001.0363-.001s.024 0 .0364.001c.0353 0 .0696.001.1039.0021l.0603.0031c.0353.0021.0717.0042.107.0084.0083.001.0166.001.025.002 1.5619.16 2.6645 1.4716 2.6645 3.2372-.0021 1.4943-.793 2.6634-1.9839 3.0843z"/></g></g></svg>