<svg width="400" height="240" xmlns="http://www.w3.org/2000/svg" xmlns:xlink="http://www.w3.org/1999/xlink"><defs><path id="a" d="M0 0h400v240H0z"/></defs><g fill="none" fill-rule="evenodd"><mask id="b" fill="#fff"><use xlink:href="#a"/></mask><use fill="transparent" xlink:href="#a"/><g mask="url(#b)"><path d="M89.164 139.312c-.436-4.67-3.59-6.967-3.921-8.324-1.323-5.447-9.268-10.42-17.986-8.61l1.339 2.533c-4.747.593-6.659 3.76-6.939 7.725 0 0-4.016 1.684-4.016 6.676 0 1.046-.283 7.299 1.72 9.361 1.547 1.592 3.15 3.107 4.496 4.88 2.227 2.93 5.689 4.816 9.585 4.816 3.952 0 7.458-1.94 9.68-4.944 1.284-1.735 2.683-3.387 4.338-4.747.91-.747 1.704-4.148 1.704-5.182v-4.184" fill="#1F2F3F"/><path d="M86.71 155.089c2.246-.486 3.799-2.576 3.512-4.882-.238-1.904-1.657-3.363-3.438-3.78-.913-6.524-6.55-11.552-13.388-11.552-6.841 0-12.482 5.032-13.392 11.56-2.204.517-3.72 2.586-3.434 4.865.24 1.93 1.698 3.4 3.512 3.794a13.321 13.321 0 0 0 4.003 7.36c.615.579.929 1.404.826 2.239l-1.262 10.247c-.349 2.835 1.035 6.809 3.073 8.827l.015.016c3.242 3.21 8.308 3.738 12.153 1.268a9.837 9.837 0 0 0 4.466-9.489L81.989 164.6a2.63 2.63 0 0 1 .807-2.227 13.323 13.323 0 0 0 3.913-7.283" fill="#839AB7"/><path d="M85.754 170.081l-2.324-4.317-9.966 11.044-9.966-11.044-2.46 4.317-14.102 5.202-3.956 27.62 1.787 22.49.37 4.658.97 10.74h54.9l.783-10.74.371-4.658.027-.343a18.333 18.333 0 0 0 2.252-3.055l1.414-2.428c1.27-2.178 3.098-5.617 5.024-9.34a27.227 27.227 0 0 0 1.79-20.713c-1.979-6.287-6.688-11.373-12.677-14.23l-14.237-5.203z" fill="#293C4F"/><path d="M63.447 219.002l2.34 2.412 14.887 7.105c.97-7.76 6.581-13.318 10.413-16.836-1.399-.203-31.225-5.685-31.225-5.685l-14.839 9.776 6.302 10.754 12.122-7.526z" fill="#839AB7"/><path d="M96.796 215.374c-.547-.099-2.153-.547-2.153-.547l-3.033 1.013a23.389 23.389 0 0 0-8.267 4.82l-2.34 2.414-12.526 6.3c-.97-7.76-6.581-13.318-10.413-16.837 1.399-.202 26.699.827 26.699.827l2.085-3.247 3.277-5.712a4.816 4.816 0 0 1 2.993-2.267l10.101-1.498c.388 1.488-1.006 2.504-2.788 3.219l-6.082 1.487 6.757-.868s.754 2.306-1.493 2.88c-.692.177-2.535.557-3.846.82l4.985 1.557c-.433 1.359-1.895 2.111-3.266 1.683l-3.12-.974-1.591 2.52 1.303-.466a3.016 3.016 0 0 1 2.222.08l2.81 1.24s-.592 1.869-2.314 1.556" fill="#839AB7"/><path d="M51.607 229.651c-3.88-1.326-7.066-4.136-9.119-7.657l-1.414-2.426c-1.27-2.18-3.097-5.617-5.024-9.342a27.216 27.216 0 0 1-1.789-20.712c1.978-6.287 6.686-11.373 12.676-14.231l8.322 14.07 1.897 21.842 6.342-2.94c6.124 4.93 5.538 11.351 6.516 16.437.533 2.77.626 4.657.626 4.657l-11.059 4.154-2.189-2.922a17.238 17.238 0 0 1-5.785-.93" fill="#293C4F"/><g><path d="M345.87 151.189l-.227-9.536c-.175-7.403-5.95-13.569-13.184-13.652-7.595-.088-13.686 6.282-13.502 13.987l.596 25.15c.157 6.59 4.849 11.976 10.947 13.106 2.135 5.785 7.788 9.77 14.238 9.256 7.496-.597 13.107-7.334 12.924-15.027l-.094-3.966c-.129-5.407-3.159-10.044-7.53-12.389-2.517-1.352-4.1-4.019-4.168-6.93" fill="#203142"/><path d="M347.514 151.325c-.252-2.096-1.917-3.66-3.898-3.817-.26-6.224-5.258-11.192-11.402-11.192-6.15 0-11.151 4.975-11.404 11.207-.063.004-.124-.003-.187.004-2.338.296-4 2.475-3.71 4.868.253 2.103 1.93 3.669 3.922 3.816.269 3.331 5.277 9.065 5.277 9.065l-1.51 10.196c-.385 3.647 3.709 28.577 3.709 28.577 2.775 2.106 4.858 3.311 7.638 1.21 0 0 4.117-24.948 3.727-28.608l-1.367-11.364s5.018-5.747 5.284-9.09c.07-.006.14.005.21-.005 2.338-.295 4-2.474 3.711-4.867" fill="#648CBF"/><path d="M338.952 170.625l.394 3.282-7.132 22.988-7.613-21.423.71-4.785-15.529 5.56-3.346 27.039 6.496 22.015-1.068 15.483 41.054-.036-1.013-13.098s4.603-2.107 6.499-5.675l1.196-2.376c1.073-2.133 2.62-5.499 4.249-9.144 3.234-7.242 3.366-15.566.728-22.736-1.815-4.932-5.404-8.969-9.933-11.472l-15.692-5.622z" fill="#293C4F"/><path d="M323.744 219.045l1.978 2.362 12.588 6.954c.82-7.596 5.565-13.037 8.805-16.481-1.184-.197-26.403-5.566-26.403-5.566l-12.546 9.571 5.328 10.527 10.25-7.367z" fill="#648CBF"/><path d="M351.941 215.495c-.461-.098-1.82-.537-1.82-.537l-2.565.992c-2.589 1-4.97 2.608-6.99 4.718l-1.978 2.362-10.592 6.169c-.82-7.597-5.564-13.038-8.805-16.482 1.183-.198 22.575.81 22.575.81l1.764-3.179 2.77-5.592c.548-1.102 1.46-1.903 2.53-2.22l8.543-1.466c.327 1.457-.852 2.452-2.359 3.152l-5.142 1.456 5.714-.85s.637 2.257-1.263 2.82c-.586.172-2.144.542-3.25.8l4.212 1.526c-.364 1.329-1.601 2.067-2.76 1.647l-2.637-.954-1.347 2.468 1.103-.455a2.224 2.224 0 0 1 1.878.078l2.376 1.213s-.5 1.829-1.957 1.524" fill="#648CBF"/><path d="M313.732 229.47c-3.28-1.298-5.975-4.048-7.71-7.495l-1.196-2.376c-1.073-2.133-2.619-5.499-4.247-9.144-3.236-7.242-3.368-15.567-.728-22.736 1.814-4.931 5.403-8.968 9.932-11.472l7.037 13.773 1.605 21.383 5.362-2.879c5.178 4.828 4.684 11.114 5.508 16.092.452 2.711.53 4.558.53 4.558l-9.35 4.067-1.85-2.862a12.759 12.759 0 0 1-4.893-.909" fill="#293C4F"/></g><g><path d="M260.177 154.215a4.099 4.099 0 0 0-1.758-2.873 4.209 4.209 0 0 0-1.444-.653c-.455-3.247-2.169-6.086-4.629-8.04-3.478.593-7.93 4.048-15.309 4.983-2.032.258-2.695-1.006-2.593-2.732a12.39 12.39 0 0 0-2.426 5.796c-.53.124-1.016.35-1.442.645-1.227.85-1.955 2.316-1.759 3.894.224 1.8 1.583 3.172 3.274 3.538a12.435 12.435 0 0 0 3.712 6.842c.583.555.883 1.34.786 2.135l-1.174 9.54c-.325 2.645.964 6.351 2.863 8.236l.014.013a9.107 9.107 0 0 0 11.326 1.183 9.181 9.181 0 0 0 4.162-8.852l-1.272-10.21a2.523 2.523 0 0 1 .769-2.124 12.434 12.434 0 0 0 3.626-6.767c2.095-.453 3.542-2.403 3.274-4.554" fill="#6485B0"/><path d="M253.27 173.054l-1.02 2.357c-1.221 2.817-3.844 4.896-6.925 5.164a9.134 9.134 0 0 1-1.54.005c-3.097-.248-5.74-2.331-6.969-5.162l-.982-2.26-10.526 2.688c-16.916 4.337-18.304 21.052-18.304 21.052l11.586 6.731L221.196 240h46.5l.483-18.107s9.453-7.23 11.248-10.704c1.828-3.542 4.97-8.816 1.668-19.324-.922-2.933-2.274-11.858-15.203-15.51l-12.623-3.3z" fill="#293C4F"/><path d="M235.227 219.375l2.18 2.251 21.763 4.304c7.181 1.42 14.507-1.657 18.476-7.759l.548-.842c5.628-6.85 4.267-18.807 4.267-18.807l-14.724.447-.103 15.708-37.642-5.104-11.934 6.79 5.87 10.033 11.299-7.021z" fill="#6485B0"/><path d="M272.29 202.244l-9.414 1.398a4.497 4.497 0 0 0-2.788 2.114l-3.055 5.331-1.944 3.03-33.727 2.747-.47-19.072-13.889-.894c-1.838 6.933-.774 7.96.222 13.08 2.261 11.617 13.647 19.177 25.356 16.897l19.006-3.7 2.18-2.253a21.799 21.799 0 0 1 7.705-4.496l2.826-.945s1.497.418 2.006.511c1.605.291 2.157-1.453 2.157-1.453l-2.62-1.156a2.798 2.798 0 0 0-2.069-.075l-1.216.434 1.485-2.351 2.907.909c1.277.4 2.64-.304 3.042-1.57l-4.644-1.452c1.22-.247 2.937-.6 3.583-.766 2.095-.536 1.392-2.686 1.392-2.686l-6.298.809 5.668-1.387c1.66-.668 2.96-1.616 2.6-3.004" fill="#6485B0"/><path d="M244.497 131.213c-8.027 0-14.535 6.454-14.535 14.415v1.579c0 1.437.218 2.823.614 4.134.426-.296.911-.521 1.442-.645a12.395 12.395 0 0 1 2.426-5.796c-.102 1.725.561 2.99 2.593 2.732 7.378-.935 11.831-4.39 15.309-4.981 2.46 1.951 4.174 4.791 4.628 8.037.526.123 1.01.353 1.444.654.395-1.31.614-2.697.614-4.135v-1.58c0-7.96-6.508-14.414-14.535-14.414" fill="#1C3954"/></g><g><path d="M174.85 162.907c-.238-1.907-1.806-3.33-3.67-3.473-.173-4.034-2.619-7.478-6.099-9.129-16.514-1.05-15.446 13.326-16.514 16.773.37.145.76.245 1.17.274a10.517 10.517 0 0 0 2.842 6.35c.483.515.805 1.147.95 1.82.088.408.112.83.066 1.253l-.953 7.9c-.36 3.318 3.493 26.825 3.493 26.825 2.612 1.916 5.992 1.919 8.606.008 0 0 3.877-23.525 3.509-26.852l-.96-7.864a3.95 3.95 0 0 1 .067-1.27c.146-.67.469-1.3.95-1.81a10.531 10.531 0 0 0 2.852-6.373c.067-.005.13.003.198-.005 2.2-.268 3.764-2.25 3.493-4.427" fill="#497099"/><path d="M174.93 159.926l-.077-.15a4.049 4.049 0 0 1-.428-1.653c-.423-7.786-6.48-13.123-13.89-13.123-6.595 0-14.351 3.945-15.123 15.498a3.675 3.675 0 0 1-.779 2.053c-1.02 1.276-2.717 4.677-2.327 12.97h11.224a3.84 3.84 0 0 0-.95-1.818 10.524 10.524 0 0 1-2.844-6.351 3.991 3.991 0 0 1-1.17-.274c11.043-9.43 8.258-16.773 16.516-16.773 2.765 7.433 6.097 9.129 6.097 9.129 1.866.143 3.433 1.565 3.67 3.473.273 2.176-1.292 4.158-3.493 4.427-.066.008-.131 0-.197.005a10.537 10.537 0 0 1-2.851 6.372 3.823 3.823 0 0 0-.95 1.81h9.83c0-1.281.09-2.905.171-4.176a21.78 21.78 0 0 0-2.43-11.419" fill="#192C40"/><path d="M174.88 182.96l-7.087-2.56-2.511 12.437c-.444 2.194-2.39 3.772-4.65 3.772-2.198 0-4.107-1.492-4.615-3.606l-2.955-12.322-7.326 2.542-7.794 20.012 5.315 25.71a36.3 36.3 0 0 1 .97 11.841l32.63.067-.004-.067a36.77 36.77 0 0 1 1.31-11.723l5.298-18.788-8.58-27.315z" fill="#293C4F"/><path d="M153.332 221.747l1.709 1.957 17.058 3.743c11.362 1.9 15.126-2.37 15.126-2.37s9.402-32.873-12.344-42.118l3.934 19.75 1.425 5.225-1.508 9.726-28.798-2.25-10.058 3.717 4.602 8.725 8.854-6.105z" fill="#497099"/><path d="M182.383 206.847l-7.38 1.216c-.925.262-1.714.926-2.186 1.839l-2.392 4.636-1.524 2.634-26.436 2.39-2.23-9.2a13.505 13.505 0 0 1 2.545-11.567l2.956-15.585c-21.746 9.136-14.619 38.737-14.619 38.737s4.55 9.25 20.141 6.322l14.897-3.22 1.71-1.957c1.744-1.75 3.8-3.081 6.038-3.911l2.215-.822s1.173.364 1.572.444c1.258.254 1.69-1.262 1.69-1.262l-2.052-1.006a2.014 2.014 0 0 0-1.627-.063l-.948.374 1.162-2.043 2.28.79c1.001.348 2.068-.265 2.385-1.365l-3.64-1.264c.955-.214 2.303-.522 2.808-.666 1.642-.466 1.09-2.337 1.09-2.337l-4.935.705 4.442-1.207c1.302-.58 2.32-1.404 2.038-2.612" fill="#497099"/></g></g><g mask="url(#b)" fill="#FFF"><path d="M124.471 78.853V76.08l-6.127-3.513v-6.979l-.515-.277-1.964-1.11-2.433-1.386V61.66l1.03-.555 2.432 1.387 1.964 1.109.515.277 6.127-3.512 6.127 3.512.515-.277 1.964-1.11-8.56-4.899-6.127 3.513-2.432-1.387-2.432 1.387 11.039-6.286 11.038 6.286 1.03.555v1.155l-2.433 1.387-1.964 1.109-.515.277v6.98l-6.127 3.512V78.853l8.56-4.9v-6.978l2.432-1.387v9.799l-11.133 6.285-1.029.555-.982-.555-11.039-6.285V62.815v2.82l1.965 1.109.514.277V74l8.56 4.853zM111 61.383v15.39l7.25 4.114 6.221 3.558L125.5 85l1.029-.555 6.221-3.558 7.25-4.114V60.227l-1.029-.555-6.221-3.559L125.5 52l-7.25 4.113-6.221 3.56-1.029.554v1.155zM237.153 60H230v17h7.482c.894 0 1.742-.095 2.494-.332a5.604 5.604 0 0 0 1.93-.903c.518-.38.941-.902 1.223-1.472.283-.57.424-1.234.424-1.947 0-.57-.094-1.092-.282-1.567-.189-.475-.471-.854-.753-1.187a5.07 5.07 0 0 0-1.13-.855 6.285 6.285 0 0 0-1.412-.57c.33-.142.66-.332.989-.522.33-.237.611-.475.847-.807.235-.332.47-.712.612-1.14a4.59 4.59 0 0 0 .235-1.472c0-.665-.141-1.234-.377-1.757-.235-.522-.611-.95-1.13-1.33-.47-.38-1.034-.664-1.74-.854-.66-.19-1.412-.285-2.26-.285zm52.8 0h-12.141v17H290v-1.757h-10.306v-5.936h10.259V67.55h-10.259v-5.793h10.259V60zM270 61.757h5.647V60h-13.223v1.757h5.647V77H270V61.757zm-16.753 8.5L260.26 60h-2.212l-5.741 8.5-5.694-8.5h-2.306l7.012 10.257V77h1.93v-6.743zm-16.376-2.66h-4.989v-5.84h5.13c1.223 0 2.117.237 2.776.76.66.522.941 1.187.941 2.042 0 .997-.376 1.757-1.082 2.279-.706.475-1.647.76-2.776.76zm.658 7.694h-5.647v-5.984h5.318c1.459 0 2.588.238 3.341.76.753.522 1.13 1.235 1.13 2.184 0 .95-.377 1.71-1.13 2.28-.706.475-1.741.76-3.012.76zM159.907 63.457V60H146v3.457h5.121v13.496h3.712V63.457h5.074zM227 73.637h-9.02v-3.55H227v-3.315h-9.02v-1.895l-1.551-1.562H227V60h-12.686v16.953H227v-3.315zm-14.8 3.316v-3.41h-8.363V60h-3.712v16.953H212.2zm-14.283-11.034v-.047c0-.853-.14-1.658-.423-2.368a4.99 4.99 0 0 0-1.268-1.847c-.564-.52-1.222-.9-2.02-1.183-.8-.285-1.692-.427-2.726-.427h-6.86V77h3.712v-5.067h2.82c.94 0 1.832-.142 2.63-.379a5.573 5.573 0 0 0 2.162-1.136 6.168 6.168 0 0 0 1.456-1.847c.376-.805.517-1.657.517-2.652zm-3.712.048c0 .71-.235 1.325-.751 1.846-.517.474-1.222.758-2.162.758h-1.41l-1.55 1.563v-6.725h2.866c.94 0 1.645.237 2.209.663.516.427.798 1.09.798 1.895zM182.46 76.953V60h-3.711v16.953h3.711zm-5.873 0L172.5 70.89c1.08-.426 1.926-1.041 2.584-1.894.658-.852.987-1.989.987-3.362v-.047c0-1.752-.564-3.126-1.692-4.12-1.127-.994-2.678-1.468-4.651-1.468h-7.706v16.953h3.712v-5.399h2.913l3.618 5.399h4.322zm-4.228-11.128c0 .71-.235 1.325-.752 1.752-.47.426-1.174.663-2.114.663h-2.208l-1.55 1.562v-6.44h3.664c.893 0 1.644.19 2.114.616.517.426.752.994.752 1.8v.047h.094z"/></g></g></svg>
