<svg height="80" width="140" xmlns="http://www.w3.org/2000/svg"><g fill="none" fill-rule="evenodd"><path d="M47.7227 52.8412l-5.5322-5.5331a.9347.9347 0 0 0-1.3087 0l-5.5322 5.5331a.8976.8976 0 0 0 .6538 1.5466h11.0654a.9023.9023 0 0 0 .654-1.5466z" fill="#c3c6cc"/><path d="M47.9068 32.9678l-1.733-5.1447a1.8108 1.8108 0 0 0-.3664-.63L18.8221 54.1774a.8268.8268 0 0 0 .5777.2104h7.6647a1.628 1.628 0 0 0 1.1553-.473l19.3197-19.3197a1.5505 1.5505 0 0 0 .3673-1.6273z" fill="#e1e3e6"/><path d="M45.177 26.8248l-5.1448-1.732a1.5505 1.5505 0 0 0-1.6273.3673L19.0843 44.7797a1.6349 1.6349 0 0 0-.472 1.1553v7.6647a.8268.8268 0 0 0 .2103.5777L45.8079 27.193a1.8205 1.8205 0 0 0-.631-.3683z" fill="#c3c6cc"/><path d="M118.9678 39.2797a1.5285 1.5285 0 0 1-.204.855 1.2602 1.2602 0 0 1-.539.4592 2.2074 2.2074 0 0 1-.7632.1827 11.422 11.422 0 0 1-.855.0313h-.9973v-3.0352h1.0993c.265 0 .5298.0135.7934.0404.2536.0223.5015.0878.7329.1937.2156.1001.3988.2585.529.4574.1469.2458.2178.5295.2039.8155zm.3664 7.7611h2.748l-1.5064-2.2206a28.9569 28.9569 0 0 0-.7834-1.0993 137.7576 137.7576 0 0 0-.662-.8761 1.8642 1.8642 0 0 0-.4887-.5299 2.9764 2.9764 0 0 0 1.9442-.9468 3.0118 3.0118 0 0 0 .7632-2.1288 3.0519 3.0519 0 0 0-1.1397-2.4447 3.1257 3.1257 0 0 0-1.293-.6015 8.5988 8.5988 0 0 0-1.8616-.1727h-3.7047v11.0204h2.2592v-4.5836c.222-.0098.4417.0471.6309.1635.1647.11.3153.2398.4482.3866.1994.245.3861.5.5593.7641.224.3325.5531.8315.9872 1.497zm-19.1406 0h7.0833V45.126h-4.7828v-2.9332h3.5816v-1.8129h-3.6027v-2.5466h4.3154l.325-1.8129h-6.9198zm-8.8862-.0009l4.2943-11.0195h-2.3813l-2.1774 5.7242a8.0604 8.0604 0 0 0-.2746.7944 24.436 24.436 0 0 0-.2342.8449c-.068.2654-.1225.4861-.1635.6621l-.0606.2654-.0817-.2654a16.9051 16.9051 0 0 0-.1626-.6814 24.0864 24.0864 0 0 0-.2342-.8458c-.0881-.2994-.173-.5642-.2544-.7944l-2.0149-5.704h-2.5236L89.252 47.04zm-17.899.001h7.0825V45.126h-4.7828v-2.9332h3.5825v-1.8129H75.688v-2.5466h4.3144l.326-1.8129h-6.9198zm-6.2017 0l.428-1.8745h-4.478v-9.146h-2.2996v11.0204z" fill="#262933" fill-rule="nonzero"/></g></svg>