<svg height="80" width="140" xmlns="http://www.w3.org/2000/svg"><g fill="#1c85e8" fill-rule="evenodd"><path d="M29.7807 39.6556c0-5.192-.8874-7.3442-3.3273-7.3442-2.1519 0-3.2388 1.5088-3.2388 6.7453 0 5.1697.843 7.3 3.3275 7.3 2.196 0 3.2386-1.4869 3.2386-6.701M19 39.5226c0-5.8357 4.015-8.1431 7.5866-8.1431 3.8152 0 7.4087 2.2854 7.4087 7.788 0 5.8798-4.015 8.1209-7.5866 8.1209-3.815 0-7.4087-2.4407-7.4087-7.7659m21.9309 6.8783c-.7543 0-1.3531-.3329-1.7526-.7988v-8.0765c.355-.133.9096-.3994 1.797-.3994 1.6858 0 2.6398 1.1093 2.6398 4.2823 0 4.0606-.9318 4.9924-2.6842 4.9924m1.9742-11.205c-1.553 0-2.7948.7322-3.7268 1.531h-.1108l.0428-1.3277a.1984.1984 0 0 0-.2205-.2036l-3.0782.348a.1807.1807 0 0 0-.1602.1797v16.0663c0 .1076.0936.1915.2006.1794l3.1662-.3578a.1804.1804 0 0 0 .1601-.1794v-3.0116c0-.7765-.022-1.3535-.022-1.3535.488.133 1.2201.2218 1.686.2218 3.7044 0 6.4106-2.0191 6.4106-6.6343 0-4.0605-2.2404-5.4582-4.3478-5.4582m9.1567 4.7037l3.793-.1997c0-2.6846-.3546-3.661-1.6857-3.661-1.1314 0-2.0187 1.065-2.1073 3.8607m-3.5048 1.3091c0-3.8607 2.8613-6.013 5.7895-6.013 3.0255 0 4.9242 1.4952 5.0323 5.407a.1368.1368 0 0 1-.136.1401H52.201a.1372.1372 0 0 0-.1363.1404c.0993 3.5244 1.4684 4.497 3.7236 4.497 1.1007 0 1.9882-.2558 2.7309-.5853a.134.134 0 0 1 .1572.0356l.295.3471a.1346.1346 0 0 1-.0031.1796c-.8092.8535-2.4566 1.9312-4.622 1.9312-3.8597 0-5.7894-2.3076-5.7894-6.0797" fill-rule="nonzero"/><path d="M68.4977 35.1959c-1.6192 0-3.0833.7323-4.2589 1.5753H64.15l.0436-1.399a.1759.1759 0 0 0-.1954-.1804l-3.104.352a.1803.1803 0 0 0-.1604.1792v11.1233c0 .0972.0788.1758.1758.1758h3.1754a.1758.1758 0 0 0 .1758-.1758v-9.2985c.488-.111 1.2866-.2884 2.0632-.2884 1.0425 0 1.5306.4216 1.5306 1.775v7.8119c0 .0972.0788.1758.1758.1758h3.1976a.176.176 0 0 0 .176-.1758v-8.677c0-1.997-1.0205-2.9734-2.9063-2.9734"/><path d="M80.9204 45.0474c-.355.1332-.954.4883-1.8634.4883-1.6859 0-2.5732-1.1318-2.5732-4.6153 0-3.6612 1.1091-4.837 2.7062-4.837.821 0 1.3533.4659 1.7304.9318zm3.527-12.026c0-1.1469.039-2.2007.0597-2.6332a.2084.2084 0 0 0-.2275-.2169l-3.1948.363a.1805.1805 0 0 0-.1644.1798v3.1061c0 .7987.0443 1.6197.0443 1.6197-.4658-.1332-1.0869-.244-1.6857-.244-3.4606 0-6.4333 1.8416-6.4333 6.4569 0 4.038 2.1517 5.6357 4.348 5.6357 1.5527 0 2.795-.6213 3.7489-1.4421h.0886l-.045 1.2247a.209.209 0 0 0 .2379.2154l3.0434-.34a.2087.2087 0 0 0 .1799-.2068zm9.7882 8.365c0-4.482-.865-5.3252-2.3735-5.3252-1.3976 0-2.2182 1.0207-2.2182 4.837 0 4.5488.732 5.5248 2.3512 5.5248 1.3312 0 2.2405-.7765 2.2405-5.0366m-8.3184-.1109c0-4.2603 3.0167-6.0797 6.0115-6.0797 3.2165 0 6.0337 1.9304 6.0337 5.9687 0 4.2601-2.9725 6.1242-6.0337 6.1242-3.2165 0-6.0115-1.953-6.0115-6.0132m21.5491.1109c0-4.482-.865-5.3252-2.3735-5.3252-1.3976 0-2.2182 1.0207-2.2182 4.837 0 4.5488.7321 5.5248 2.3514 5.5248 1.331 0 2.2403-.7765 2.2403-5.0366m-8.3185-.1109c0-4.2603 3.0168-6.0797 6.0115-6.0797 3.2165 0 6.0336 1.9304 6.0336 5.9687 0 4.2601-2.9723 6.1242-6.0336 6.1242-3.2163 0-6.0115-1.953-6.0115-6.0132" fill-rule="nonzero"/><path d="M119.4369 35.1959c-1.2866 0-2.551.9763-3.2385 1.7085h-.0888l.0431-1.4911a.209.209 0 0 0-.232-.2137l-3.067.3443a.1802.1802 0 0 0-.1603.1794v11.09c0 .1154.0935.2088.2087.2088h3.1094a.209.209 0 0 0 .209-.2087v-8.9992c.3105-.2886.8207-.5771 1.2198-.5771.1998 0 .333.0445.466.2885.4215.6878.7551 1.0854 1.708 1.0854.8654 0 1.639-.686 1.639-1.751 0-1.0874-.7516-1.6641-1.8164-1.6641"/></g></svg>