<svg height="80" width="140" xmlns="http://www.w3.org/2000/svg"><path d="M41.2942 46.1197c-.7607-1.4972-1.653-3.0095-3.3939-3.0095-.3328 0-.665.055-.9701.1943l-.5914-1.1837c.7206-.6181 1.8852-1.1083 3.382-1.1083 2.3285 0 3.5235 1.1217 4.4723 2.5534.5632-1.2224.8309-2.8732.8309-4.9194 0-5.1095-1.598-7.7333-5.3307-7.7333-3.6782 0-5.2674 2.6238-5.2674 7.7333 0 5.0828 1.5892 7.6794 5.2676 7.6794.5845 0 1.114-.0643 1.6007-.2062zm.9118 1.7833c-.8063.216-1.663.3354-2.5127.3354-4.8978 0-9.6933-3.9081-9.6933-9.5917C30 32.9089 34.7955 29 39.6933 29c4.98 0 9.7296 3.881 9.7296 9.6465 0 3.207-1.4966 5.8133-3.6715 7.4979.7027 1.0529 1.4263 1.7522 2.4336 1.7522 1.0994 0 1.5428-.8496 1.617-1.516h1.4319c.0836.8873-.3602 4.5746-4.3618 4.5746-2.4237 0-3.7051-1.4047-4.6661-3.0522zm10.3657-4.8757v-6.5705c0-.7483-.2766-1.0807-1.136-1.0807h-.915v-1.746h5.9783v9.3143c0 1.5702.85 2.2626 2.1442 2.2626 1.062 0 2.1246-.4699 2.6977-1.5428v-7.2074c0-.7485-.2774-1.0808-1.1363-1.0808h-.9702V33.63h6.0342v9.7568c0 .9717.36 1.4146 1.4688 1.4146h.1942v1.8019l-5.3963.859v-1.857h-.111c-1.044 1.2743-2.513 2.1342-4.6108 2.1342-2.3565 0-4.242-1.1914-4.242-4.7122zm22.2087 2.9663c2.1255 0 2.933-1.849 2.9754-5.5722.0412-3.6418-.85-5.4047-2.9754-5.4047-1.857 0-3.0215 1.7639-3.0215 5.4047 0 3.7239 1.1454 5.5722 3.0215 5.5722zm0 1.746c-3.8438 0-7.3098-2.9391-7.3098-7.3182 0-4.297 3.3825-7.1522 7.3096-7.1522 4.0937 0 7.374 2.91 7.374 7.1522 0 4.379-3.2803 7.3181-7.3738 7.3181zm7.4976-.2774V45.716h.5823c1.4417 0 1.5802-.4157 1.5802-1.663v-7.5962c0-.7483-.388-1.0807-1.2749-1.0807h-.7762v-1.746h5.479l.2773 2.8553h.1114c.61-2.0522 2.2452-3.1333 3.7787-3.1333 1.2658 0 2.2542.721 2.2542 2.1814 0 1.0162-.4886 2.0978-1.8565 2.0978-1.2295 0-1.469-.8321-2.486-.8321-.905 0-1.6078.8598-1.6078 2.125v5.1288c0 1.2471.3052 1.663 1.7192 1.663h.8036v1.7462H82.278zm18.2399-2.0327c1.7467 0 2.467-1.6539 2.467-3.3161v-2.2186c-1.2748 1.3206-4.2416 1.3671-4.2416 3.7234 0 1.155.6845 1.8113 1.7744 1.8113zm2.5506-.0094c-.721 1.3858-2.2 2.3193-4.2692 2.3193-2.4024 0-3.9548-1.2759-3.9548-3.5207 0-4.5176 6.2923-3.317 8.1403-6.3102v-.3239c0-2.3003-.9055-2.6606-1.9034-2.6606-2.7998 0-1.525 3.0108-4.103 3.0108-1.238 0-1.7187-.7472-1.7187-1.588 0-1.7004 2.0332-3.0774 5.8499-3.0774 3.612 0 5.8303.9982 5.8303 4.5929V43.6c0 .8868.3236 1.368 1.0998 1.368.3324 0 .6095-.0925.8218-.2404l.4624 1.1263c-.379.5827-1.3866 1.6083-3.2995 1.6083-1.6625 0-2.707-.7762-2.8457-2.042h-.1102z" fill="#b92b27"/></svg>