<svg height="80" width="140" xmlns="http://www.w3.org/2000/svg" xmlns:xlink="http://www.w3.org/1999/xlink"><linearGradient id="a"><stop offset="0" stop-color="#00b388"/><stop offset=".1316" stop-color="#00b097"/><stop offset=".5116" stop-color="#00a9bf"/><stop offset=".8143" stop-color="#00a5d7"/><stop offset="1" stop-color="#00a3e0"/></linearGradient><linearGradient id="b" x1="-3.467%" x2="210.392%" xlink:href="#a" y1="-4.306%" y2="212.161%"/><linearGradient id="c" x1="-110.425%" x2="103.434%" xlink:href="#a" y1="-109.345%" y2="104.514%"/><linearGradient id="d" x1="-110.655%" x2="103.204%" xlink:href="#a" y1="-109.117%" y2="104.742%"/><linearGradient id="e" x1="-480.077%" x2="349.632%" xlink:href="#a" y1="-332.966%" y2="250.643%"/><linearGradient id="f" x1="-762.162%" x2="67.552%" xlink:href="#a" y1="-487.336%" y2="88.137%"/><linearGradient id="g" x1="-301.557%" x2="101.859%" xlink:href="#a" y1="-301.641%" y2="101.775%"/><linearGradient id="h" x1="-328.292%" x2="247.159%" xlink:href="#a" y1="-480.073%" y2="349.604%"/><linearGradient id="i" x1="-249.244%" x2="580.442%" xlink:href="#a" y1="-150.288%" y2="433.302%"/><linearGradient id="j" x1="13.253%" x2="580.333%" xlink:href="#a" y1="34.814%" y2="905.173%"/><linearGradient id="k" x1="-1.67%" x2="401.752%" xlink:href="#a" y1="-1.53%" y2="401.895%"/><linearGradient id="l" x1="34.126%" x2="847.967%" xlink:href="#a" y1="12.206%" y2="587.686%"/><linearGradient id="m" x1="-493.976%" x2="89.538%" xlink:href="#a" y1="-766.939%" y2="62.639%"/><linearGradient id="n" x1="-151.947%" x2="251.475%" xlink:href="#a" y1="-151.257%" y2="252.164%"/><linearGradient id="o" x1="-151.808%" x2="442.927%" xlink:href="#a" y1="-249.109%" y2="580.577%"/><linearGradient id="p" x1="-151.284%" x2="252.132%" xlink:href="#a" y1="-151.916%" y2="251.5%"/><linearGradient id="q" x1="-3.101%" x2="210.758%" xlink:href="#a" y1="-3.457%" y2="213.01%"/><g fill="none" fill-rule="evenodd"><path d="M14.9347 8.8353c-.2179.2196-.6505.2196-.8676 0l-3.9037-3.9516c-.2179-.2188-.2179-.658 0-.8776L14.0671.1647c.2179-.2196.6505-.2196.8676 0l3.9037 3.9516c.2155.2188.2155.658 0 .8776l-3.9045 3.8406z" fill="url(#b)" transform="translate(20 26)"/><path d="M14.9347 27.8373c-.2179.217-.6505.217-.8676 0l-3.9037-3.9042c-.2179-.2162-.2179-.65 0-.867l3.9037-3.9034c.2179-.217.6505-.217.8676 0l3.9037 3.9042c.2155.2177.2155.6516 0 .8678l-3.9045 3.9042z" fill="url(#c)" transform="translate(20 26)"/><path d="M24.9337 17.8373c-.2178.217-.6504.217-.8674 0l-3.903-3.9038c-.2178-.217-.2178-.65 0-.867l3.903-3.9038c.2178-.217.6504-.217.8674 0l3.903 3.9038c.2178.217.2178.65 0 .867z" fill="url(#d)" transform="translate(20 26)"/><path d="M9.9067 24.3c0-.2963-.1878-.3946-.3736-.1973l-1.4022 1.5777c-.1878.1973-.1878.4937.094.691l1.3082.5911c.2804.0998.4669 0 .4669-.2955V24.3h-.094z" fill="url(#e)" transform="translate(20 26)"/><path d="M21.7762 26.3387c.2804-.0984.2804-.3892.0939-.6814l-1.4958-1.5558c-.1878-.1946-.3743-.0984-.3743.1946v2.334c0 .2916.1878.4861.4675.2916l1.308-.583z" fill="url(#f)" transform="translate(20 26)"/><path d="M25 19.6812c0-.3406-.3408-.6812-.6817-.6812h-3.6366c-.3409 0-.6817.3406-.6817.6812v3.636c0 .3414.3408.6828.6817.6828h3.6366c.3409 0 .6817-.3414.6817-.6812z" fill="url(#g)" transform="translate(20 26)"/><path d="M27.3382 7.2238c-.0977-.2802-.3887-.2802-.6804-.0946L25.1017 8.626c-.1954.187-.0977.374.1954.374h2.3328c.2917 0 .4864-.187.2917-.4679z" fill="url(#h)" transform="translate(20 26)"/><path d="M21.8691 2.3196c.1878-.2964.1878-.5912-.0939-.691l-1.3078-.5911c-.2803-.0998-.4674 0-.4674.2955V3.7c0 .2963.1878.3946.3742.1973l1.4956-1.5777z" fill="url(#i)" transform="translate(20 26)"/><path d="M2.3666 7.1362c-.2874-.1956-.5748-.1956-.671.0992L1.025 8.511c-.0963.2934.0962.489.383.489h2.3001c.2875 0 .3837-.1956.1926-.3919l-1.5335-1.472z" fill="url(#j)" transform="translate(20 26)"/><path d="M9.8858 4.6812C9.8858 4.3406 9.545 4 9.2042 4H5.6817C5.3408 4 5 4.3406 5 4.6812v3.636C5 8.6585 5.3425 9 5.6825 9H9.319c.34 0 .6809-.3414.6809-.6812V4.6804h-.1142z" fill="url(#k)" transform="translate(20 26)"/><path d="M9.9085 1.3698c0-.2915-.1842-.486-.4586-.2915l-1.191.583c-.2763.0984-.3684.3892-.092.6814l1.4673 1.5558C9.817 4.0931 10 3.997 10 3.704V1.37h-.0921z" fill="url(#l)" transform="translate(20 26)"/><path d="M27.9628 19.4672c.0991-.2802 0-.4672-.2958-.4672h-2.3667c-.2958 0-.395.1877-.1982.3747l1.579 1.495c.1982.187.4933.187.6908-.0933l.5916-1.3098z" fill="url(#m)" transform="translate(20 26)"/><path d="M9.8858 19.6812c0-.3406-.3408-.6812-.6816-.6812H5.6817C5.3408 19 5 19.3406 5 19.6812v3.636c0 .3414.3425.6828.6825.6828H9.319c.34 0 .6809-.3414.6809-.6812v-3.6376z" fill="url(#n)" transform="translate(20 26)"/><path d="M3.8949 19.374c.202-.187.101-.374-.2005-.374H1.3822c-.3015 0-.502.187-.3015.4679l.603 1.3083c.1009.2802.4024.2802.7038.0946z" fill="url(#o)" transform="translate(20 26)"/><path d="M25 8.3188c0 .3406-.3408.6812-.6817.6812h-3.6366C20.3408 9 20 8.6594 20 8.3188v-3.636c0-.3414.3408-.6828.6817-.6828h3.6366c.3409 0 .6817.3414.6817.6812z" fill="url(#p)" transform="translate(20 26)"/><path d="M4.9355 17.8353c-.2178.2196-.6512.2196-.8683 0L.1634 13.8837c-.2179-.2196-.2179-.658 0-.8776l3.9038-3.8414c.2178-.2196.6505-.2196.8676 0l3.903 3.9508c.2163.2196.2163.658 0 .8784z" fill="url(#q)" transform="translate(20 26)"/><path d="M100.2519 34.6147c-1.0967 0-1.6454.3235-2.7429 1.5089v-.539c0-.6456-.1102-.7545-.7676-.7545h-.5495c-.6582 0-.7676.1089-.7676.7545v10.23c0 .6472.1102.7545.7676.7545h.5487c.6574 0 .7668-.1073.7668-.7544v-5.4911c0-1.4.1102-2.2618.4393-2.8.4385-.7545 1.425-1.1854 2.3036-1.0773.2204 0 .4393.1074.5487.1074h.2205c.1086 0 .1086-.1074.2188-.1074.1103-.1089.2189-.3235.3291-.539.1102-.1073.1102-.2154.2205-.3227l.2188-.431c-.1102-.2154-.8778-.5382-1.7556-.5382zm-36.4259 0c-1.0967 0-1.6454.3235-2.742 1.5089v-.539c0-.6456-.1103-.7545-.7685-.7545h-.5479c-.6582 0-.7676.1089-.7676.7545v10.23c0 .6472.1086.7545.7668.7545h.5487c.659 0 .7692-.1073.7692-.7544v-5.4911c0-1.4.1102-2.2618.4385-2.8.4393-.7545 1.4266-1.1854 2.3044-1.0773.2204 0 .4393.1074.5487.1074h.2205c.1102 0 .1102-.1074.2188-.1074.1103-.1089.2205-.3235.3291-.539.1102-.1073.1102-.2154.2205-.3227l.218-.431c-.1102-.2154-.877-.5382-1.7556-.5382zm5.925 7.1089c0 1.0764.1103 1.7227.3292 2.1528.4393.7545 1.317 1.1854 2.3043 1.1854.988 0 1.8659-.431 2.3044-1.1854.2204-.5382.329-1.0764.329-2.1544v-6.1367c0-.647.1103-.7544.7685-.7544h.5495c.6582 0 .7676.1073.7676.7544v6.353c0 1.7235-.329 2.6926-1.0967 3.5544-.8778.969-2.195 1.5073-3.6215 1.5073-1.5352 0-2.742-.5382-3.6199-1.5089-.7684-.8602-1.0975-1.8293-1.0975-3.5529v-6.3544c0-.6456.1103-.753.7684-.753h.5488c.659 0 .7684.1074.7684.7545v6.1367zm12.8359-5.17c1.2077-1.291 2.4146-1.9382 4.1702-1.9382 3.2908 0 5.7054 2.5854 5.7054 6.139 0 3.5545-2.4138 6.2456-5.8148 6.2456-1.6454 0-2.9625-.6456-4.1694-1.9367v.8603c0 .6455-.1103.7528-.7684.7528h-.548c-.659 0-.7684-.1073-.7684-.7544V26.7544c0-.6455.1103-.7544.7684-.7544h.548c.659 0 .7684.1089.7684.7544v9.8h.1102zm-.218 4.2c0 2.5846 1.6453 4.4155 3.9497 4.4155 2.3036 0 3.9498-1.8309 3.9498-4.4154 0-2.3691-1.6454-4.2-3.9498-4.2-2.3044-.1074-3.9498 1.6154-3.9498 4.2zm24.6866-10.339c0 .7545-.6589 1.4-1.4273 1.4-.7676 0-1.4265-.6455-1.4265-1.5073 0-.7544.659-1.4 1.4265-1.4.7684.109 1.4266.7545 1.4266 1.509zm-.5495 15.509c0 .6455-.1102.7528-.7684.7528h-.5479c-.659 0-.7684-.1073-.7684-.7544V35.6927c0-.6456.1102-.7545.7684-.7545h.548c.6589 0 .7683.109.7683.7545zm9.874-10.6618c.3292-.3236.3292-.3236.878-.3236h.877c.5487 0 .7683.109.7683.431 0 .1072-.1102.3227-.329.5381L114.4047 40l5.2669 5.8154c.2189.2163.3283.4317.3283.539 0 .3228-.2189.431-.7676.431h-.8778c-.5487 0-.5487 0-.8778-.3228l-4.4985-4.9545-.5488.2155v4.091c0 .6472-.1102.7545-.7676.7545h-.5487c-.6582 0-.7676-.1073-.7676-.7544V26.7544c0-.6455.1102-.7544.7676-.7544h.5487c.6582 0 .7676.1089.7676.7544v12.4927l3.9498-3.9845z" fill="#393c4d" fill-rule="nonzero"/></g></svg>