<svg width="60" height="60" xmlns="http://www.w3.org/2000/svg"><g fill="none" fill-rule="evenodd"><path d="M21.793 0h16.414c7.578 0 10.326.789 13.096 2.27a15.447 15.447 0 0 1 6.426 6.427C59.211 11.467 60 14.215 60 21.793v16.414c0 7.578-.789 10.326-2.27 13.096a15.447 15.447 0 0 1-6.427 6.426C48.533 59.211 45.785 60 38.207 60H21.793c-7.578 0-10.326-.789-13.096-2.27a15.447 15.447 0 0 1-6.426-6.427C.789 48.533 0 45.785 0 38.207V21.793c0-7.578.789-10.326 2.27-13.096A15.447 15.447 0 0 1 8.698 2.27C11.467.789 14.215 0 21.793 0z" fill="#ECF3FC"/><path d="M19.128 15h21.744c1.783 0 2.43.186 3.082.534.652.349 1.163.86 1.512 1.512.348.652.534 1.299.534 3.082v19.744c0 1.783-.186 2.43-.534 3.082a3.635 3.635 0 0 1-1.512 1.512c-.652.348-1.299.534-3.082.534H19.128c-1.783 0-2.43-.186-3.082-.534a3.635 3.635 0 0 1-1.512-1.512c-.348-.652-.534-1.299-.534-3.082V20.128c0-1.783.186-2.43.534-3.082a3.635 3.635 0 0 1 1.512-1.512c.652-.348 1.299-.534 3.082-.534z" stroke="#4A90E2" stroke-width="2.5"/><path stroke="#4A90E2" stroke-width="1.5" d="M26 33l5.333 8H20.667z"/><path stroke="#4A90E2" stroke-width="1.5" d="M18 27h24v14H18z"/><path stroke="#4F92E5" stroke-width="1.5" fill="#ECF3FC" d="M33 31l7 10H26z"/><path d="M19 18a2 2 0 1 1 0 4 2 2 0 1 1 0-4zM25 18a2 2 0 1 1 0 4 2 2 0 1 1 0-4zM31 18a2 2 0 1 1 0 4 2 2 0 1 1 0-4z" stroke="#4A90E2" stroke-width="1.5"/></g></svg>