<svg width="65" height="66" xmlns="http://www.w3.org/2000/svg"><g fill="none" fill-rule="evenodd"><path d="M20.511 0H44.49c7.132 0 9.718.743 12.326 2.137a14.538 14.538 0 0 1 6.048 6.048C64.257 10.793 65 13.38 65 20.511V45.49c0 7.132-.743 9.718-2.137 12.326a14.538 14.538 0 0 1-6.048 6.048C54.207 65.257 51.62 66 44.489 66H20.51c-7.132 0-9.718-.743-12.326-2.137a14.538 14.538 0 0 1-6.048-6.048C.743 55.207 0 52.62 0 45.489V20.51c0-7.132.743-9.718 2.137-12.326a14.538 14.538 0 0 1 6.048-6.048C10.793.743 13.38 0 20.511 0z" fill="#ECF3FC"/><path d="M25.711 12.1H39.29c1.783 0 2.43.186 3.081.534.652.349 1.164.86 1.512 1.512.349.652.535 1.299.535 3.082v31.544c0 1.783-.186 2.43-.535 3.082a3.635 3.635 0 0 1-1.512 1.512c-.651.348-1.298.534-3.081.534H25.71c-1.783 0-2.43-.186-3.081-.534a3.635 3.635 0 0 1-1.512-1.512c-.349-.652-.535-1.299-.535-3.082V17.228c0-1.783.186-2.43.535-3.082a3.635 3.635 0 0 1 1.512-1.512c.651-.348 1.298-.534 3.081-.534z" stroke="#4A90E2" stroke-width="2.5"/><rect stroke="#4A90E2" stroke-width="2.5" stroke-linejoin="round" x="25" y="18" width="15" height="31" rx="2"/><rect stroke="#4A90E2" stroke-width="1.5" x="27.083" y="12.1" width="10.833" height="2.2" rx="1"/></g></svg>
