<svg xmlns="http://www.w3.org/2000/svg" width="65" height="66"><path d="M20.511 0H44.49c7.132 0 9.718.743 12.326 2.137a14.538 14.538 0 016.048 6.048C64.257 10.793 65 13.38 65 20.511V45.49c0 7.132-.743 9.718-2.137 12.326a14.538 14.538 0 01-6.048 6.048C54.207 65.257 51.62 66 44.489 66H20.51c-7.132 0-9.718-.743-12.326-2.137a14.538 14.538 0 01-6.048-6.048C.743 55.207 0 52.62 0 45.489V20.51c0-7.132.743-9.718 2.137-12.326a14.538 14.538 0 016.048-6.048C10.793.743 13.38 0 20.511 0z" fill="#ecf3fc" fill-rule="evenodd"/><path d="M40.96 18c5.241 3.065 8.54 8.728 8.54 14.971 0 9.432-7.462 17.098-16.732 17.273l-.324.003V52L27.5 48.995l4.944-3.004v1.753c8.054 0 14.584-6.614 14.584-14.773 0-5.221-2.696-9.965-7.008-12.625l-.296-.178zm-8.404-4l4.944 3.005-4.944 3.004v-1.753c-8.054 0-14.584 6.614-14.584 14.773 0 5.221 2.696 9.965 7.008 12.625l.296.178L24.04 48c-5.241-3.065-8.54-8.728-8.54-14.971 0-9.432 7.462-17.098 16.732-17.273l.324-.003zm1.944 9v1.994a8.2 8.2 0 012.246.931l1.41-1.41 2.83 2.828-1.411 1.41a8.2 8.2 0 01.931 2.248L42.5 31v4h-1.994a8.2 8.2 0 01-.931 2.246l1.41 1.41-2.828 2.83-1.41-1.411a8.2 8.2 0 01-2.247.93V43h-4v-1.994a8.2 8.2 0 01-2.246-.931l-1.41 1.41-2.83-2.828 1.411-1.41a8.2 8.2 0 01-.93-2.247H22.5v-4h1.994a8.2 8.2 0 01.931-2.246l-1.41-1.41 2.828-2.83 1.41 1.411a8.2 8.2 0 012.248-.931L30.5 23zm-2 4.25a5.75 5.75 0 100 11.5 5.75 5.75 0 000-11.5zm0 2a3.75 3.75 0 110 7.5 3.75 3.75 0 010-7.5zm0 1.5a2.25 2.25 0 100 4.5 2.25 2.25 0 000-4.5z" fill="#4a90e2"/></svg>
