<svg xmlns="http://www.w3.org/2000/svg" width="60" height="60" viewBox="0 0 60 60">
  <g fill="none" fill-rule="evenodd">
    <path fill="#ECF3FC" d="M20.5110816,-8.28672246e-16 L39.4889184,8.28672246e-16 C46.6210683,-4.81482439e-16 49.2073582,0.742604889 51.8147656,2.13706163 C54.422173,3.53151837 56.4684816,5.57782696 57.8629384,8.18523437 C59.2573951,10.7926418 60,13.3789317 60,20.5110816 L60,39.4889184 C60,46.6210683 59.2573951,49.2073582 57.8629384,51.8147656 C56.4684816,54.422173 54.422173,56.4684816 51.8147656,57.8629384 C49.2073582,59.2573951 46.6210683,60 39.4889184,60 L20.5110816,60 C13.3789317,60 10.7926418,59.2573951 8.18523437,57.8629384 C5.57782696,56.4684816 3.53151837,54.422173 2.13706163,51.8147656 C0.742604889,49.2073582 3.20988293e-16,46.6210683 -5.52448164e-16,39.4889184 L5.52448164e-16,20.5110816 C-3.20988293e-16,13.3789317 0.742604889,10.7926418 2.13706163,8.18523437 C3.53151837,5.57782696 5.57782696,3.53151837 8.18523437,2.13706163 C10.7926418,0.742604889 13.3789317,4.81482439e-16 20.5110816,-8.28672246e-16 Z"/>
    <g stroke="#4A90E2" transform="translate(12.5 14)">
      <path stroke-width="2.5" d="M17.2122,28.8828 C17.2122,31.2798 14.4422,32.9078 11.9252,31.9898 L7.6652,30.4388 C6.4162,29.9838 5.4232,29.1108 4.9062,28.0118 L1.0512,19.8238 C-0.0168,17.5558 -0.0168,14.9448 1.0512,12.6758 L4.9062,4.4888 C5.4232,3.3898 6.4162,2.5168 7.6652,2.0618 L11.9252,0.5088 C14.4422,-0.4082 17.2122,1.2198 17.2122,3.6168 C17.2122,1.2198 19.9812,-0.4082 22.4992,0.5088 L26.7582,2.0618 C28.0082,2.5168 29.0002,3.3898 29.5182,4.4888 L33.3732,12.6758 C34.4412,14.9448 34.4412,17.5558 33.3732,19.8238 L29.5182,28.0118 C29.0002,29.1108 28.0082,29.9838 26.7582,30.4388 L22.4992,31.9898 C19.9812,32.9078 17.2122,31.2798 17.2122,28.8828 Z"/>
      <path stroke-width="1.5" d="M22.1742 8C22.1742 9.104 23.0702 10 24.1742 10 25.2782 10 26.1742 9.104 26.1742 8 26.1742 6.896 25.2782 6 24.1742 6 23.0702 6 22.1742 6.896 22.1742 8zM22.1742 24.25C22.1742 25.354 23.0702 26.25 24.1742 26.25 25.2782 26.25 26.1742 25.354 26.1742 24.25 26.1742 23.146 25.2782 22.25 24.1742 22.25 23.0702 22.25 22.1742 23.146 22.1742 24.25zM25.1742 15.25C25.1742 16.354 26.0702 17.25 27.1742 17.25 28.2782 17.25 29.1742 16.354 29.1742 15.25 29.1742 14.146 28.2782 13.25 27.1742 13.25 26.0702 13.25 25.1742 14.146 25.1742 15.25zM15.9339277 12L22.1742 12C23.2782 12 24.1742 11.104 24.1742 10M18.8683633 15.25L25.1742 15.25M10.1742 16.25C10.1742 17.354 9.2782 18.25 8.1742 18.25 7.0702 18.25 6.1742 17.354 6.1742 16.25 6.1742 15.146 7.0702 14.25 8.1742 14.25 9.2782 14.25 10.1742 15.146 10.1742 16.25zM13.1742 8.25C13.1742 9.354 12.2782 10.25 11.1742 10.25 10.0702 10.25 9.1742 9.354 9.1742 8.25 9.1742 7.146 10.0702 6.25 11.1742 6.25 12.2782 6.25 13.1742 7.146 13.1742 8.25zM12.1742 25C12.1742 26.104 11.2782 27 10.1742 27 9.0702 27 8.1742 26.104 8.1742 25 8.1742 23.896 9.0702 23 10.1742 23 11.2782 23 12.1742 23.896 12.1742 25zM10.1742 16.25L16.1901337 16.25M10.1742 23C10.1742 21.343 11.5172 20 13.1742 20L18.8683633 20M12.1742 10.25L12.1742 10.25C12.8322 11.565 13.1742 13.016 13.1742 14.486L13.1742 16.25M21.1742 15.25L21.1742 16.008C21.1742 18.724 22.2532 20.329 24.1742 22.25M15.2670425 24.25L22.1742 24.25"/>
    </g>
  </g>
</svg>
