<svg width="60" height="60" xmlns="http://www.w3.org/2000/svg"><g fill="none" fill-rule="evenodd"><path d="M21.793 0h16.414c7.578 0 10.326.789 13.096 2.27a15.447 15.447 0 0 1 6.426 6.427C59.211 11.467 60 14.215 60 21.793v16.414c0 7.578-.789 10.326-2.27 13.096a15.447 15.447 0 0 1-6.427 6.426C48.533 59.211 45.785 60 38.207 60H21.793c-7.578 0-10.326-.789-13.096-2.27a15.447 15.447 0 0 1-6.426-6.427C.789 48.533 0 45.785 0 38.207V21.793c0-7.578.789-10.326 2.27-13.096A15.447 15.447 0 0 1 8.698 2.27C11.467.789 14.215 0 21.793 0z" fill="#ECF3FC"/><g stroke="#4A90E2"><path d="M31 13.577l12.722 7.346a2 2 0 0 1 1 1.732v14.69a2 2 0 0 1-1 1.732L31 46.423a2 2 0 0 1-2 0l-12.722-7.346a2 2 0 0 1-1-1.732v-14.69a2 2 0 0 1 1-1.732L29 13.577a2 2 0 0 1 2 0z" stroke-width="2.5"/><path stroke-width="1.5" d="M23.536 23l3.286 3.536-3.286 3.535M34.5 21a2.5 2.5 0 1 1 0 5 2.5 2.5 0 1 1 0-5zM28.087 29.5H37M23.501 33.5H37M23.501 37.5H37"/></g></g></svg>