<svg xmlns="http://www.w3.org/2000/svg" width="65" height="66"><path d="M20.511 0H44.49c7.132 0 9.718.743 12.326 2.137a14.538 14.538 0 016.048 6.048C64.257 10.793 65 13.38 65 20.511V45.49c0 7.132-.743 9.718-2.137 12.326a14.538 14.538 0 01-6.048 6.048C54.207 65.257 51.62 66 44.489 66H20.51c-7.132 0-9.718-.743-12.326-2.137a14.538 14.538 0 01-6.048-6.048C.743 55.207 0 52.62 0 45.489V20.51c0-7.132.743-9.718 2.137-12.326a14.538 14.538 0 016.048-6.048C10.793.743 13.38 0 20.511 0z" fill="#ecf3fc" fill-rule="evenodd"/><path d="M32.501 15.5c.325 0 .646.031.961.092.055.01.106.034.16.045.262.059.522.128.777.226.071.029.14.072.213.104.231.1.462.206.687.34.095.055.186.13.28.192.194.13.39.257.576.41.114.091.223.201.335.302.161.147.323.29.479.452.12.126.234.269.351.404.14.164.282.325.417.503.114.15.223.314.334.474.132.191.263.382.389.586.099.16.192.33.287.498.133.237.265.475.39.727.031.063.067.12.098.184 3.836-.246 6.744.895 8.046 3.211.165.29.298.591.404.903.01.027.014.058.023.086.093.285.168.578.216.879.01.072.009.147.017.219.033.263.06.527.059.8 0 .112-.017.229-.023.343-.012.238-.022.475-.056.718-.022.149-.062.302-.09.452-.043.215-.082.429-.143.648-.046.172-.11.346-.167.52l-.102.306-.112.308c-.07.179-.155.358-.236.539-.095.211-.19.422-.298.634-.085.168-.183.337-.278.506-.133.237-.27.471-.419.707-.037.061-.066.121-.105.182.038.06.067.119.104.179.152.238.288.475.422.712.094.168.19.336.275.502.11.215.206.428.302.64.08.179.163.356.232.533.083.209.149.415.217.622.056.171.119.343.165.512.06.222.101.438.144.656.028.147.067.297.089.444.034.244.044.483.056.722.006.113.023.23.023.34 0 .272-.026.535-.058.797-.01.073-.007.15-.018.222-.048.3-.123.589-.214.872-.01.03-.014.064-.025.094-.106.312-.24.613-.402.903-1.304 2.315-4.202 3.473-8.048 3.21-.028.058-.06.107-.09.166-.132.266-.27.52-.413.77-.087.156-.174.314-.265.463-.134.214-.272.416-.41.617-.106.15-.208.306-.315.447-.141.186-.288.353-.435.524-.112.13-.221.266-.336.386-.16.168-.327.315-.493.465-.107.097-.212.203-.32.292-.191.155-.39.286-.588.417-.091.06-.178.13-.27.186-.227.134-.46.24-.693.343-.07.03-.137.072-.208.099-.257.1-.52.17-.785.23-.05.011-.1.033-.15.043-.316.06-.637.092-.962.092-2.607 0-5.027-2.005-6.733-5.534-.03.001-.06.006-.09.008-.328.02-.65.03-.964.03-.104 0-.201-.01-.304-.013l-.118-.006a12.57 12.57 0 01-1.17-.088c-.038-.005-.075-.011-.114-.015-.378-.051-.74-.12-1.086-.205l-.083-.02a8.37 8.37 0 01-1.006-.324c-.022-.007-.043-.016-.065-.024a7.212 7.212 0 01-.89-.433c-.024-.013-.05-.026-.073-.04a6.076 6.076 0 01-.74-.518c-.032-.026-.068-.048-.1-.076a5.501 5.501 0 01-.587-.585c-.036-.04-.077-.074-.11-.115a5.512 5.512 0 01-.548-.792c-1.304-2.316-.82-5.47 1.312-8.75-2.134-3.28-2.616-6.435-1.312-8.75 1.303-2.315 4.136-3.46 7.959-3.225l.09.009c1.704-3.53 4.125-5.534 6.732-5.534zm5.715 24.91c-.374.243-.748.485-1.138.716-2.876 1.701-5.876 2.896-8.686 3.477 1.197 2.144 2.648 3.36 4.11 3.36.226 0 .449-.033.667-.082 1.252-.31 2.467-1.496 3.491-3.365.625-1.174 1.15-2.575 1.556-4.105zM25.172 23.549c-.339-.013-.663-.01-.976.004l-.2.011a9.636 9.636 0 00-1.03.123c-.176.03-.343.069-.507.11-.127.033-.253.064-.372.103-.128.04-.249.088-.368.135-.126.05-.254.1-.37.158-.104.05-.198.11-.294.168-.109.064-.22.126-.318.198-.102.076-.189.16-.279.243-.072.066-.151.127-.216.198a2.902 2.902 0 00-.38.52c-.887 1.575-.277 4.027 1.676 6.725l.546.756-.546.755c-1.953 2.698-2.563 5.15-1.675 6.727.104.186.233.357.378.518.067.073.148.136.222.204.088.081.174.165.273.238.098.07.208.134.316.196.098.06.194.12.3.173.11.055.231.101.35.149.13.052.26.103.4.147.105.034.216.062.325.09a6.75 6.75 0 00.814.164 9.282 9.282 0 00.92.087c.325.015.664.017 1.016.004h.037c.366-.017.747-.048 1.141-.093l.059-.006.413-.049c2.835-.409 5.984-1.582 9.014-3.374a28.118 28.118 0 003.084-2.128c.164-1.26.255-2.544.255-3.802 0-1.259-.09-2.542-.255-3.802a27.987 27.987 0 00-3.084-2.129c-3.029-1.793-6.178-2.965-9.012-3.374l-.411-.049a15.878 15.878 0 00-1.2-.097l-.046-.001zM44.35 35.143a25.88 25.88 0 01-3.093 3.04c-.24 1.53-.59 2.956-1.022 4.268 2.417.014 4.171-.668 4.904-1.97.113-.202.197-.417.265-.637.357-1.25-.022-2.89-1.054-4.701zm-19.188-.621v4.058h-1.484v-4.058zm2.968-2.03v6.088h-1.484v-6.087zm2.968-4.057V38.58h-1.484V28.435zm2.968 2.029v8.116h-1.484v-8.116zm7.551 1.166c.018.453.036.906.036 1.37 0 .463-.018.916-.036 1.369.437-.452.85-.908 1.229-1.369a22.476 22.476 0 00-1.229-1.37zm-16.455-4.97c1.23 0 2.226 1.021 2.226 2.282 0 1.26-.997 2.283-2.226 2.283-1.23 0-2.227-1.022-2.227-2.283 0-1.26.997-2.283 2.227-2.283zm15.073-3.11c.433 1.31.782 2.737 1.022 4.266 1.171.977 2.202 2 3.093 3.04 1.032-1.81 1.41-3.452 1.054-4.7a3.173 3.173 0 00-.266-.638c-.732-1.301-2.487-1.981-4.903-1.968zm-15.073 4.631c-.41 0-.742.34-.742.761 0 .42.332.76.742.76s.742-.34.742-.76-.333-.76-.742-.76zM32.5 18.036c-1.462 0-2.912 1.215-4.109 3.36 2.81.58 5.81 1.776 8.686 3.477.39.231.764.474 1.138.715-.406-1.53-.933-2.934-1.559-4.109-1.023-1.867-2.237-3.05-3.488-3.36a2.952 2.952 0 00-.668-.083z" fill="#4a90e2" fill-rule="evenodd"/></svg>
