<svg height="80" width="140" xmlns="http://www.w3.org/2000/svg"><path d="M104.4651 31.2326H99.628v-3.9303h-8.4651l-3.9302 3.9303H83l-2.4186 2.1162v-2.1162h-3.9302V27H61.5349v4.2326H43.3953L39.1628 27H31v17.8372l3.9302 3.9302L41.8837 53h5.4419v-1.2093L49.4419 53h10.8837l1.814-2.4186L62.4418 53h6.9534l.3024-2.4186L72.1163 53h6.3488l.3023-2.4186L80.8837 53h6.9535l2.721-2.4186V53h3.5946l3.3588-2.4186V53h4.2326l6.3488-4.8372V34.8605zm-62.8837 6.6511h-4.2326v4.2326h4.2326v4.8704h-5.7442l-3.0232-3.0565V28.814h4.5348v4.2325h4.2326zm19.9535 5.7442l-3.0233 3.3256-15.1495.0332.0332-13.9402h4.8373v9.0698h1.814v-9.0698h4.8371v9.0698h1.814v-9.0698h4.8372zm6.6511 3.3256h-4.8372v-13.907h4.8372zm0-15.721h-4.8372V28.814h4.8372zm10.5814 6.6512h-3.9302v4.2326h3.9302v4.8372h-5.7441L70 43.9302V28.814h4.8372v4.2325h3.9302zm12.3954 0h-6.0465v4.2326h6.0465v4.8372h-7.5581l-3.0233-3.0233v-7.8604l3.0233-3.0233h7.558zm15.1163 9.0698h-4.2326v-9.0698h-4.5349v9.0698h-4.5349V29.1163h4.8373v3.9302h5.7441l2.721 3.0233z" fill="#6441a4"/></svg>