<svg width="56" height="20" xmlns="http://www.w3.org/2000/svg"><g fill="#010202" fill-rule="nonzero"><path d="M3.195 14.2837c.2346.6461.5595 1.1986.9747 1.6573.4152.4589.907.81 1.4756 1.0534.5686.2435 1.1868.3652 1.8547.3652.6499 0 1.259-.1264 1.8276-.3793.5687-.2528 1.065-.6086 1.4892-1.0674.4242-.4588.7536-1.0065.9883-1.6432.2346-.6367.352-1.3483.352-2.1348V0H15v19.663h-2.8159v-1.826c-.6317.693-1.3764 1.2266-2.2337 1.6012C9.0929 19.8127 8.1679 20 7.175 20c-1.0109 0-1.954-.1826-2.8295-.5478-.8754-.3651-1.6336-.8847-2.2743-1.559-.6407-.6741-1.1462-1.484-1.5162-2.4297C.185 14.5178 0 13.4645 0 12.3034V0h2.843v12.1349c0 .7865.1173 1.5027.352 2.1488zM19.7545 0v7.163c.6364-.6555 1.3728-1.1751 2.2092-1.559.8363-.384 1.7454-.576 2.7272-.576 1.0182 0 1.9727.1967 2.8636.59.891.3932 1.6636.927 2.3182 1.6011.6546.6742 1.1728 1.47 1.5546 2.3876.3818.9177.5727 1.8915.5727 2.9215 0 1.0299-.1909 1.999-.5727 2.9072-.3818.9083-.9 1.6995-1.5546 2.3736-.6546.6742-1.4273 1.2079-2.3182 1.6011-.891.3933-1.8454.5899-2.8636.5899-.9818 0-1.8954-.192-2.7409-.5759-.8454-.3838-1.5864-.9035-2.2227-1.559v1.7978H17V0h2.7545zm.3137 14.4663c.2454.5993.5863 1.1237 1.0227 1.5731.4364.4495.9455.8053 1.5273 1.0675.5818.2621 1.209.3932 1.8818.3932.6546 0 1.2727-.131 1.8545-.3932.5819-.2622 1.0864-.618 1.5137-1.0675.4273-.4494.7682-.9738 1.0227-1.573.2546-.5993.3818-1.2453.3818-1.9382 0-.693-.1272-1.3437-.3818-1.9523-.2545-.6087-.5954-1.1377-1.0227-1.5871-.4273-.4494-.9318-.8006-1.5137-1.0533-.5818-.2528-1.2-.3793-1.8545-.3793-.6545 0-1.2727.1264-1.8545.3793-.5818.2528-1.0909.604-1.5273 1.0533-.4363.4494-.7818.9784-1.0363 1.587-.2546.6087-.3819 1.2595-.3819 1.9524 0 .6929.1227 1.3389.3682 1.9381zM33.5415 9.6045c.361-.904.8576-1.6996 1.4893-2.387.6318-.6874 1.3811-1.2288 2.2477-1.6243C38.145 5.1977 39.0838 5 40.0947 5c.993 0 1.9137.1883 2.7622.565.8484.3766 1.5796.8992 2.1934 1.5678.6138.6685 1.0923 1.4595 1.4352 2.3728.343.9134.5145 1.9069.5145 2.9803v.9323H35.762c.0903.5838.2709 1.1252.5416 1.6242.2709.499.6093.9322 1.0155 1.2994.4062.3673.8665.6545 1.381.8616.5146.2072 1.0606.3108 1.6384.3108 1.6428 0 2.9698-.7063 3.9807-2.1187l1.9768 1.5254c-.686.9605-1.5345 1.7138-2.5454 2.2599-1.011.5461-2.1484.8192-3.412.8192-1.0291 0-1.9904-.1884-2.884-.565-.8937-.3766-1.67-.904-2.3288-1.582-.659-.678-1.178-1.4736-1.5571-2.387-.3791-.9133-.5687-1.9068-.5687-2.9802-.0001-1.0169.1805-1.9774.5415-2.8813zm3.8047-1.1159c-.7673.6686-1.2773 1.5584-1.53 2.6695h8.4218c-.2347-1.1111-.7357-2.001-1.503-2.6695-.7673-.6685-1.6654-1.0028-2.6944-1.0028s-1.9272.3343-2.6944 1.0028zM52.6226 8.5136c-.581.6355-.8716 1.498-.8716 2.5876V19H49V5.109h2.7237v1.716c.345-.563.7945-1.0078 1.3483-1.3347C53.6258 5.1634 54.284 5 55.0467 5H56v2.5603h-1.144c-.9078 0-1.6523.3178-2.2334.9533z"/></g></svg>