<svg xmlns="http://www.w3.org/2000/svg" width="121" height="23"><path d="M4.566 9.602l-2.511 2.527c-2.196 2.215-2.196 5.84 0 8.05l.004.005c2.203 2.21 5.8 2.21 8 0l5.597-5.63v.008a1.27 1.27 0 011.614 0h.007l-4.82-4.851a5.636 5.636 0 00-7.89-.11" fill="#00918c"/><path d="M30.863 12.125L20.47 1.665l-.008-.005A5.805 5.805 0 0120.074 0c-2.215-1.816-5.512-1.688-7.57.387-.04.039-.07.074-.106.11l-.312.316-7.477 7.523h.004a5.624 5.624 0 017.887.105l4.82 4.852 5.586 5.617c2.2 2.219 5.797 2.219 8.004 0 2.195-2.215 2.195-5.836-.004-8.055" fill="#00ada8"/><path d="M54.02 12.117c0 4.903-2.75 7.363-7.012 7.363-4.246 0-6.946-2.46-6.946-7.218V2.809h2.868v9.336c0 3.046 1.558 4.687 4.12 4.687 2.544 0 4.102-1.547 4.102-4.57V2.809h2.868zm10.042 7.363c-2.027 0-3.308-1.027-4.167-2.18v5.677h-2.82V6.844h2.82v2.062c.906-1.289 2.187-2.324 4.167-2.324 2.915 0 5.735 2.324 5.735 6.453 0 4.125-2.797 6.445-5.734 6.445zM63.41 9.047c-1.91 0-3.586 1.57-3.586 3.988 0 2.414 1.676 3.985 3.586 3.985 1.934 0 3.52-1.524 3.52-3.985 0-2.441-1.606-3.988-3.52-3.988zm12.934 10.41c-1.746 0-3.684-.633-5.223-1.852l1.262-1.921c1.328 1.007 2.773 1.523 4.031 1.523 1.211 0 1.914-.516 1.914-1.336v-.047c0-.96-1.305-1.289-2.75-1.734-1.82-.516-3.848-1.266-3.848-3.637v-.047c0-2.344 1.934-3.773 4.383-3.773 1.535 0 3.215.539 4.52 1.406l-1.121 2.016c-1.184-.727-2.446-1.176-3.469-1.176-1.098 0-1.727.52-1.727 1.246v.047c0 .894 1.329 1.265 2.774 1.734 1.797.567 3.824 1.383 3.824 3.614v.046c0 2.602-2.004 3.891-4.57 3.891zm10.254-4.102c0 1.102.562 1.551 1.515 1.551.63 0 1.188-.144 1.746-.426v2.32c-.695.403-1.488.634-2.539.634-2.074 0-3.543-.91-3.543-3.637V9.28H82.22V6.844h1.558V3.44h2.82v3.403h3.31V9.28h-3.31zm13.004 3.868v-1.524c-.836 1.008-2.122 1.781-3.985 1.781-2.332 0-4.379-1.335-4.379-3.82v-.047c0-2.675 2.117-3.988 4.985-3.988 1.492 0 2.449.21 3.406.52v-.31c0-1.71-1.074-2.651-3.035-2.651-1.371 0-2.399.308-3.52.773l-.765-2.273c1.351-.606 2.68-1.028 4.683-1.028 3.637 0 5.406 1.922 5.406 5.227v7.34zm.07-5.25c-.723-.282-1.727-.493-2.82-.493-1.774 0-2.82.727-2.82 1.993v.047c0 1.175 1.046 1.832 2.374 1.832 1.867 0 3.266-1.059 3.266-2.606zm8.344 5.25h-2.82V6.843h2.82v2.79c.77-1.856 2.187-3.121 4.355-3.028V9.61h-.16c-2.473 0-4.195 1.618-4.195 4.903zm9.625-3.868c0 1.102.558 1.551 1.511 1.551.63 0 1.188-.144 1.746-.426v2.32c-.695.403-1.488.634-2.539.634-2.07 0-3.543-.91-3.543-3.637V9.28h-1.558V6.844h1.558V3.44h2.825v3.403h3.308V9.28h-3.308zm0 0" fill="#333"/></svg>