<svg width="111" height="22" xmlns="http://www.w3.org/2000/svg" xmlns:xlink="http://www.w3.org/1999/xlink"><defs><path d="M16.9446 5.1356A5.138 5.138 0 1 1 11.809 0c2.8358.0013 5.1343 2.2998 5.1356 5.1356zm-11.809 6.4167c-2.8354.0013-5.1333 2.3002-5.1333 5.1356 0 2.8354 2.2979 5.1344 5.1333 5.1356 2.8355.0013 5.1354-2.2956 5.138-5.131a5.1356 5.1356 0 0 0-5.138-5.1356v-.0046zm13.3444 0a5.1356 5.1356 0 1 0 5.1356 5.1356c-.0025-2.8345-2.301-5.131-5.1356-5.131v-.0046z" id="a"/><radialGradient cx="49.9978%" cy="49.9911%" fx="49.9978%" fy="49.9911%" r="49.9934%" id="b"><stop stop-color="#FDB813" offset="0%"/><stop stop-color="#F05E8F" offset="60%"/><stop stop-color="#F15756" offset="100%"/></radialGradient></defs><g fill="none" fill-rule="evenodd"><path d="M42.208 16.885c.0664.7494.6668 1.705 1.7095 1.705h.6073a.4308.4308 0 0 0 .4308-.4285V4.7758a.4308.4308 0 0 0-.4285-.4056h-1.886a.4308.4308 0 0 0-.4286.4056v1.0886C41.0667 4.439 39.2333 3.8477 37.4 3.8477a7.5258 7.5258 0 1 0 0 15.0494c1.8333 0 3.8202-.7104 4.8125-2.0167l-.0046.0046zm-4.8011-.6142a4.8927 4.8927 0 1 1 4.7873-4.8904 4.8377 4.8377 0 0 1-4.7873 4.8904zM72.9598 16.885c.0665.7494.6669 1.705 1.7073 1.705h.6096a.4285.4285 0 0 0 .4285-.4285V4.7758a.4285.4285 0 0 0-.4262-.4056h-1.8884a.4285.4285 0 0 0-.4262.4056v1.0886c-1.1573-1.4254-2.9792-2.0167-4.8125-2.0167a7.5258 7.5258 0 1 0 0 15.0494c1.8333 0 3.8202-.7104 4.8125-2.0167l-.0046.0046zm-4.8125-.621a4.8927 4.8927 0 1 1 4.7964-4.8905 4.8377 4.8377 0 0 1-4.785 4.8973l-.0114-.0068zM107.337 16.885c.0665.7494.667 1.705 1.7074 1.705h.6096a.4285.4285 0 0 0 .4285-.4285V4.7758a.4285.4285 0 0 0-.4262-.4056h-1.8884a.4285.4285 0 0 0-.4262.4056v1.0886c-1.1573-1.4254-2.9792-2.0167-4.8125-2.0167a7.5258 7.5258 0 1 0 0 15.0494c1.8333 0 3.8202-.7104 4.8125-2.0167l-.0046.0046zm-4.8124-.621a4.8927 4.8927 0 1 1 4.785-4.8905c.0331 2.6701-2.1035 4.8621-4.7736 4.8973l-.0114-.0068z" fill="#2F3D54" fill-rule="nonzero"/><path d="M92.6177 17.3456V10.418c0-3.8958-2.4612-6.5381-6.3915-6.5381-1.8745 0-3.5887 1.0748-3.953 2.0167-.1192-.7288-.5042-1.4942-1.705-1.4942h-.612a.4308.4308 0 0 0-.4308.4285v13.388a.4308.4308 0 0 0 .4308.4056h1.886a.3438.3438 0 0 0 .0849 0h.0367l.0435-.0138.0458-.0252.023-.0137a.2292.2292 0 0 0 .0526-.0413.6531.6531 0 0 0 .0528-.0596.4308.4308 0 0 0 .0802-.2291v-7.9292c0-2.0972 1.7-3.7973 3.7973-3.7973 2.0971 0 3.7973 1.7001 3.7973 3.7973v7.9062a.4308.4308 0 0 0 .4285.4057h1.886a.3438.3438 0 0 0 .0848 0h.0344l.0458-.0138.0436-.0252a.1535.1535 0 0 0 .0275-.0137l.0481-.039h.0115a.5156.5156 0 0 0 .048-.055.4308.4308 0 0 0 .0803-.2292v-.9029h.023zM49.4633 14.9669a6.9598 6.9598 0 0 0 3.9577 1.304c1.2605 0 2.5621-.6532 2.5621-1.7876 0-1.517-2.837-1.753-4.62-2.3604-1.7829-.6073-3.316-1.8562-3.316-3.8844 0-3.1029 2.7637-4.384 5.3441-4.384a8.0644 8.0644 0 0 1 4.416 1.311.4377.4377 0 0 1 .1468.614l-1.045 1.4897a.4194.4194 0 0 1-.6165.1329 5.1838 5.1838 0 0 0-2.9012-.9167c-1.5744 0-2.5209.7265-2.5209 1.6294 0 1.0794 1.233 1.4208 2.6767 1.7875 2.5208.6875 5.2594 1.4942 5.2594 4.5833 0 2.7317-2.5575 4.423-5.3832 4.423a9.0544 9.0544 0 0 1-5.5-1.7326.4583.4583 0 0 1-.0962-.6164l1.0381-1.4827a.4125.4125 0 0 1 .5981-.11z" fill="#2F3D54"/><g><mask id="c" fill="#fff"><use xlink:href="#a"/></mask><path d="M12.9319 0c7.142 0 12.9318 5.7898 12.9318 12.9319 0 7.142-5.7897 12.9318-12.9318 12.9318C5.7898 25.8637 0 20.074 0 12.932 0 5.7898 5.7898 0 12.9319 0z" fill="url(#b)" mask="url(#c)"/></g></g></svg>