<svg height="80" width="140" xmlns="http://www.w3.org/2000/svg"><g fill="none"><path d="M41.1625 44.8219l.6905-.1473c.6094-.1683.7719-.2524.7719-1.5147V33.251c0-1.2623-.1828-1.3675-.7719-1.5148l-.6905-.1472V31h11.0083l.2032 4.1865h-.6297c-.5077-1.157-.8327-1.7671-1.1374-2.23-.65-.9677-1.0764-1.0519-2.4779-1.0519-1.0358 0-1.5436.1263-1.8482.2104v5.3647h.5484c1.4217 0 1.7467-.1683 1.9904-.6312.2843-.526.4468-.9256.6296-1.5989h.6093v5.4278h-.6093c-.1828-.6522-.3453-1.073-.6296-1.683-.2437-.526-.5078-.6311-1.9904-.6311h-.5484v4.0392c0 1.8724.0609 2.0828 2.031 2.0828 1.6249 0 1.9498-.2104 2.6201-1.2413.3656-.568.7515-1.4516 1.2796-2.777h.65l-.2844 4.944H41.1828zm13.405-7.8892c-.4671-1.1781-.6906-1.4727-1.1983-1.641l-.386-.1262v-.547h6.0323v.547l-.5484.1473c-.4265.1262-.6296.3366-.6296.8415 0 .2945.1016.6522.264 1.115l1.6858 4.7966h.1016l1.6248-4.7966c.1828-.505.264-.8626.264-1.1571 0-.4628-.203-.6942-.6296-.7994l-.5483-.1473v-.547h3.7168v.547l-.3859.1262c-.528.1894-.7515.505-1.239 1.8724l-3.1075 8.2468h-1.706zm9.282 3.0294c0-3.6185 2.5794-5.617 5.2401-5.617 2.7623 0 4.4887 1.4305 4.5496 5.1963h-6.6416c.061 3.4081 1.2999 4.3338 3.3716 4.3338 1.239 0 2.1935-.3787 2.945-.7784v.6942c-.7109.7995-2.2342 1.8934-4.2449 1.8934-3.4934-.042-5.2198-2.188-5.2198-5.7223zm3.1481-1.2202l3.4325-.1893c0-2.5035-.325-3.4292-1.5233-3.4292-1.0155 0-1.828 1.0098-1.9092 3.6185zM78.92 35.944c.5686-.6311 1.7264-1.662 3.0669-1.662.853 0 1.5639.7153 1.5639 1.62 0 .9046-.6906 1.6198-1.564 1.6198-.6296 0-1.1983-.3997-1.4217-.9677-.1219-.2314-.3859-.2945-.5687-.2945-.3656 0-.7921.2735-1.0561.526v6.732c0 .9678.0812 1.073.6905 1.1782l.6703.1472v.568h-5.7886v-.568l.5281-.1472c.6703-.1894.7515-.2946.7515-1.1782V37.059c0-.8836-.1015-.9467-.6702-1.3464l-.6703-.4629v-.4207l4.2246-.505.2234.1684-.0406 1.4306zm5.2401 8.899l.528-.1472c.6703-.1894.7516-.2946.7516-1.1782V37.059c0-.8836-.1016-.9467-.6703-1.3464l-.6702-.4629v-.4207l4.2246-.505.2234.1473-.0406 1.3254h.0812c1.0562-.7784 2.3764-1.4726 3.8387-1.4726 1.7061 0 2.62.9046 2.62 2.777v6.3955c0 .9046.0813 1.0098.7313 1.1781l.528.1473v.568h-5.5854v-.568l.4875-.1262c.6093-.1684.6702-.2315.6702-1.1992v-5.575c0-1.2623-.4468-1.662-1.381-1.662-.711 0-1.4218.1683-1.8687.2735v6.9845c0 .9888.061 1.0309.6703 1.1992l.4874.1262v.568h-5.5854v-.568zm12.5317-4.8177c0-3.9761 2.7216-5.6802 5.4229-5.6802 2.9044 0 5.4432 1.8093 5.4432 5.575 0 3.9762-2.681 5.7224-5.4432 5.7224-2.9044 0-5.423-1.8093-5.423-5.6172zm7.4946.1052c0-4.1865-.7718-4.986-2.153-4.986-1.2592 0-2.0107.9468-2.0107 4.5232 0 4.2497.6703 5.1753 2.1326 5.1753 1.1983 0 2.031-.7363 2.031-4.7125zm5.098 2.6508v-6.9425h-1.2593v-.5049c1.564-.6311 2.7622-1.8303 3.331-3.4923h1.1373v2.777h2.6607l-.264 1.2202h-2.3967v6.7321c0 1.0309.3047 1.4516 1.3 1.4516.4874 0 1.0764-.1051 1.442-.1893v.589c-.4875.4629-1.4827 1.2203-3.1685 1.2203-1.8076 0-2.7826-.8205-2.7826-2.8612zm6.3572-2.819c0-3.6186 2.5794-5.6172 5.2401-5.6172 2.7623 0 4.4887 1.4306 4.5496 5.1964H118.81c.061 3.4081 1.3 4.3338 3.3716 4.3338 1.239 0 2.1935-.3787 2.945-.7784v.6942c-.7108.7995-2.2341 1.8934-4.2449 1.8934-3.5137-.042-5.2401-2.188-5.2401-5.7223zm3.1481-1.2203l3.4325-.1893c0-2.5035-.325-3.4292-1.5233-3.4292-1.0155 0-1.828 1.0098-1.9092 3.6185z" fill="#000"/><path d="M20.58 32.6172c0 .2487-.0204.6633-.2648.9327-.2648.2488-.6723.2695-.9167.2695h-2.6076c-.7537 0-1.202 0-1.5075.0415-.163.0207-.3667.1036-.4685.145-.0408.0208-.0408 0-.0204-.0207l5.9485-6.156c.0204-.0208.0407-.0208.0204.0206-.0408.1037-.1223.311-.1426.4768-.0408.3109-.0408.7669-.0408 1.5338zm5.541 18.6134c-.6925-.456-1.0592-1.057-1.2018-1.4302-.1426-.3524-.2241-.7462-.2241-1.14 0-1.7204 1.3852-3.1299 3.0965-3.1299.5093 0 .9167.4146.9167.9328 0 .3523-.1834.6425-.4686.8083-.1018.0622-.2444.1037-.3463.1244-.1018.0207-.4889.0622-.6722.228-.2038.1658-.3667.4353-.3667.7255 0 .3109.1222.601.326.8084.3666.373.8555.5803 1.3852.5803 1.3852 0 2.5057-1.14 2.5057-2.5495 0-1.2644-.8352-2.3836-1.9353-2.8811-.163-.083-.4278-.1451-.6723-.2073-.3056-.0622-.5908-.1036-.6111-.1036-.8556-.1037-2.9946-.7877-3.1372-2.7153 0 0-.6316 2.9018-1.8946 3.6895-.1222.0622-.2852.1243-.4686.1658-.1833.0415-.387.0622-.4481.0622-2.0576.1243-4.2373-.539-5.7448-2.1142 0 0-1.0186-.8499-1.5483-3.2336-.1222-.5803-.3666-1.6167-.5092-2.591-.0612-.3523-.0815-.6217-.1019-.8705 0-1.0156.6111-1.6996 1.3853-1.8033h4.1558c.713 0 1.1204-.1865 1.3852-.4353.3464-.3316.4278-.8083.4278-1.368v-4.2492-.1243c.1019-.767.7742-1.4095 1.7724-1.4095h.4889c.2037 0 .4482.0207.6722.0415.163.0207.3056.0621.55.1243 1.2427.311 1.5076 1.596 1.5076 1.596s2.3427.4146 3.5243.6219c1.1204.2073 3.891.3938 4.4206 3.2335 1.2427 6.7572.489 13.3071.4278 13.3071-.876 6.3842-6.0911 6.0733-6.0911 6.0733-1.1204 0-1.9557-.3731-2.5057-.767zm4.6856-13.5766c-.6723-.0622-1.2427.2073-1.4464.7255-.0408.1036-.0815.228-.0611.2902.0203.0622.061.0829.1018.1036.2445.1244.652.1866 1.2427.2487.5908.0622.9982.1037 1.263.0622.0408 0 .0815-.0207.1223-.0829s.0203-.1865.0203-.2902c-.0815-.5803-.5704-.9742-1.2426-1.057z" fill="#00a82d"/></g></svg>