<svg xmlns="http://www.w3.org/2000/svg" width="140" height="80"><style>.st0{fill:#324354}.st1{fill:#fa5959}.st2{fill:#24303e}</style><path class="st0" d="M2168.8 1812.7v-146.5h47.8v140.5c0 9.9 2.2 12.3 12.3 12.3h4.1l5.6 38.8c-3.6.5-18.4 1.5-27.3 1.5-26.4 0-42.5-9.2-42.5-46.6zM2534.6 1723.3l37.2-2.9 3.6 11.1c7.5-7 20.5-14 48.5-14 48.3 0 59.3 34 59.3 71.9 0 38.1-12.3 71.7-62.2 71.7-22.2 0-32.6-5.1-38.6-10.6v48.3h-47.8v-175.5zm100.2 68c0-16.2-2.9-30.4-23.6-30.4-22.2 0-28.7 11.3-28.7 30.4s4.8 29.4 28.7 29.4c20.1 0 23.6-13.3 23.6-29.4zM2853.6 1723.3l37.2-2.9 4.8 14.5c6-8.2 22.7-15.2 42.5-15.9v46c-31.8.2-36.7 9.7-36.7 28.6v65.4h-47.8v-135.7zM2951.4 1719h24.6l7.7-28.1 36.9-8v36h30.2v46h-30.2v39.9c0 9.4 1.5 14.2 16.4 14.2h13.8v39.8c-7.2.5-15.2.7-24.1.7-40.3 0-53.6-12.8-53.6-47.5v-47.1h-21.7V1719z"/><path class="st1" d="M3064.1 1819h39.8v39.8h-39.8z"/><path class="st0" d="M2050.8 1720.6h26.1v-2.7c0-34.7 13-52.1 57.9-52.1 11.8 0 14 .2 19.8.7v38.8h-13.3c-13.7 0-16.6 3.4-16.6 12.3v2.9h29.9v40.5h-29.9v97.7h-47.8V1761h-26.1v-40.4zM2342.6 1817.6c-7.9 4.6-12 5.7-27.7 5.7-18.7 0-25.9-6.6-28.3-17.9h91.8c1.7-48.7-2.4-88-63.5-88-61.4 0-74.3 33.8-74.3 71.5 0 38.6 12.9 72.6 74.3 72.6 24.2 0 39.5-4.5 55.7-15l-28-28.9zm-29.3-61c19.7 0 21.1 9.4 21.8 20.6h-49.2c2-13.2 8.2-20.6 27.4-20.6z"/><path class="st0" d="M2473.1 1858.9l-23.5-33.5-23.4 33.5h-53.4l50-71.3-45.4-64.3h53.9l18.5 26.2 18.5-26.2h54.6l-46.3 64 50.2 71.6zM2693.1 1789.3c0-45.8 21-71.9 75-71.9s74.8 26.1 74.8 71.9-20.7 72.1-74.8 72.1c-54 .1-75-26.2-75-72.1zm101.8 1.5c0-17.4-4.3-29.9-26.8-29.9-22.4 0-26.8 12.5-26.8 29.9 0 17.1 4.3 29.9 26.8 29.9s26.8-12.8 26.8-29.9z"/><path class="st2" d="M28.9 43.1V28.3h4.8v14.2c0 1 .2 1.2 1.2 1.2h.4l.6 3.9c-.4.1-1.9.2-2.7.2-2.7 0-4.3-1-4.3-4.7zM65.7 34.1l3.7-.3.4 1.1c.8-.7 2.1-1.4 4.9-1.4 4.9 0 6 3.4 6 7.2 0 3.8-1.2 7.2-6.3 7.2-2.2 0-3.3-.5-3.9-1.1v4.8h-4.8V34.1zm10.1 6.8c0-1.6-.3-3.1-2.4-3.1-2.2 0-2.9 1.1-2.9 3.1s.5 3 2.9 3c2 0 2.4-1.4 2.4-3zM97.8 34.1l3.7-.3.5 1.5c.6-.8 2.3-1.5 4.3-1.6v4.6c-3.2 0-3.7 1-3.7 2.9v6.6h-4.8V34.1zM107.7 33.6h2.5l.8-2.8 3.7-.8v3.6h3v4.6h-3v4c0 .9.2 1.4 1.7 1.4h1.4v4c-.7.1-1.5.1-2.4.1-4.1 0-5.4-1.3-5.4-4.8v-4.7h-2.2v-4.6z"/><path class="st1" d="M119 43.7h4v4h-4z"/><path class="st2" d="M17 33.8h2.6v-.3c0-3.5 1.3-5.2 5.8-5.2 1.2 0 1.4 0 2 .1v3.9h-1.3c-1.4 0-1.7.3-1.7 1.2v.3h3v4.1h-3v9.8h-4.8v-9.8H17v-4.1zM46.4 43.6c-.8.5-1.2.6-2.8.6-1.9 0-2.6-.7-2.9-1.8H50c.2-4.9-.2-8.9-6.4-8.9s-7.5 3.4-7.5 7.2c0 3.9 1.3 7.3 7.5 7.3 2.4 0 4-.5 5.6-1.5l-2.8-2.9zm-3-6.2c2 0 2.1.9 2.2 2.1h-5c.3-1.3.9-2.1 2.8-2.1z"/><path class="st2" d="M59.5 47.7l-2.4-3.3-2.3 3.3h-5.4l5-7.2-4.5-6.4h5.4l1.9 2.6 1.8-2.6h5.5l-4.6 6.4 5 7.2zM81.7 40.7c0-4.6 2.1-7.2 7.6-7.2 5.4 0 7.5 2.6 7.5 7.2S94.7 48 89.2 48c-5.4 0-7.5-2.7-7.5-7.3zm10.2.2c0-1.8-.4-3-2.7-3-2.3 0-2.7 1.3-2.7 3s.4 3 2.7 3c2.3 0 2.7-1.3 2.7-3z"/></svg>

