<svg height="80" width="140" xmlns="http://www.w3.org/2000/svg"><path d="M38.2838 46.7853h-4.021v-6.2576c0-.7539-.1256-1.3445-.3895-1.7842-.2639-.4273-.5529-.6786-.867-.754-.3142-.0754-.5655-.1005-.7288-.1005-.8419 0-1.2566.3895-1.2566 1.156v7.7403H27V30.287l4.021-.49v6.0942l.1884-.1382.2639-.1634c.8042-.5529 1.6586-.8293 2.5885-.8293.2764 0 .5654.0251.8419.0754 2.2617.4398 3.38 1.9225 3.38 4.4356zm1.0555-18.7602l3.7822 2.8398-3.7822 2.9403zm-.1131 6.8733h4.021v11.887h-4.021zm17.4534 5.931c0 1.5706-.4147 2.9025-1.2314 3.9957-.8294 1.0932-1.8974 1.7843-3.2294 2.0733-.3895.0629-.666.1006-.8167.1006-.1508.0125-.2764.0125-.3644.0125-.9424 0-1.7717-.2262-2.488-.6785l-.1884-.1382-.1634-.1383v5.8304h-4.021V34.8984h3.8577v.9173l.49-.377c.7665-.5654 1.6712-.8418 2.7016-.8418 1.1183 0 2.1487.3392 3.1162 1.0303.9675.6911 1.646 1.6335 2.0356 2.8273.1131.3518.1885.7036.2388 1.0806.0377.377.0628.8167.0628 1.2942zm-4.046-.3896c-.063-.6785-.2514-1.2189-.5781-1.6084-.3141-.402-.754-.6408-1.2942-.7413-.2262-.0252-.3896-.0503-.5027-.0503-.6157 0-1.1309.2136-1.5455.6534-.4021.4272-.6408 1.0178-.7037 1.7466v.8544c0 .7414.2136 1.3194.6534 1.7466s.9801.6409 1.6335.6409c.0754 0 .2262-.0126.4524-.0503.578-.113 1.0304-.402 1.3696-.8544.3393-.465.5152-1.0681.5152-1.822.0251-.2262.0126-.3896 0-.5152zm22.2407 6.3455h-4.0209v-6.446c0-1.0555-.3141-1.7843-.9298-2.199l-.377-.1382c-.176-.0503-.3393-.0754-.4775-.0754-.6031 0-.9424.3016-1.0178.9173v7.9288h-4.021v-6.4084c0-.6911-.1005-1.2314-.3015-1.5958-.201-.377-.5026-.6157-.9173-.754-.1885-.0628-.377-.1005-.5654-.1005-.666 0-1.0178.3142-1.068.9424v7.9037h-4.021V34.8733h3.8576v.9424a4.017 4.017 0 0 1 .9675-.6785c.377-.201.754-.3267 1.1435-.4021.2638-.0628.5654-.1005.9172-.1005.3896 0 .7917.0502 1.1937.1507.4021.1006.7665.264 1.0681.465.3016.201.578.4649.8042.7665l.2136-.2388c.8042-.7665 1.8094-1.156 3.0283-1.156.5529 0 1.1057.1005 1.6712.2764 1.8974.6786 2.8398 2.1487 2.8398 4.4105v7.4764zm12.4398-.025h-3.8827v-1.0556l-.2387.1634-.3267.2387-.7288.4021c-.7037.3644-1.42.5403-2.1613.5403-.9675 0-1.8345-.3016-2.5885-.8921-.7539-.5906-1.244-1.3697-1.445-2.3246-.0754-.4273-.113-.7791-.113-1.0807v-7.8282h4.0209v6.044c0 1.4575.49 2.3371 1.4576 2.6387.2638.1005.5277.1256.8041.1005.4524-.0503.7665-.201.9299-.4523s.2513-.7037.2513-1.3697v-6.9612h4.021zm12.3267.025H95.62v-6.2701c0-.7916-.113-1.3697-.3267-1.7466-.2262-.377-.5906-.6409-1.1183-.779-.0377-.0126-.1257-.0378-.2765-.0629-.1508-.0251-.2764-.0377-.3644-.0377-.377 0-.6785.113-.9047.3267-.2262.2262-.3267.5026-.3267.8545v7.7151h-4.021V34.8984h3.8577v1.0304l.289-.2387c.867-.6535 1.7591-.9927 2.7015-.9927.3142 0 .666.0377 1.0555.1256 2.2995.4524 3.4555 2.1739 3.4555 5.1644zm12.9299-2.1487l-3.3676 2.5131-4.6115-6.3204v5.931h-4.021V30.2868l4.021-.49v9.2481l4.3225-4.5235 2.4 2.4251-2.4754 2.4251z" fill="#3394de"/></svg>