<svg height="80" width="140" xmlns="http://www.w3.org/2000/svg"><path d="M29.625 53.2c0 2.325-1.875 4.2-4.2 4.2s-4.2-1.875-4.2-4.2 1.875-4.2 4.2-4.2 4.2 1.875 4.2 4.2m14.025.075c0 1.65-1.35 3-3 3s-3-1.35-3-3 1.35-3 3-3 3 1.35 3 3m10.875 0c0 .75-.6 1.35-1.35 1.35s-1.35-.6-1.35-1.35.6-1.35 1.35-1.35 1.35.6 1.35 1.35m-14.7-8.925c-.75 0-1.275-.6-1.275-1.275v-5.55c0-1.875-.9-3.375-2.925-3.375s-3.3 1.575-3.3 3.375V43c0 .75-.525 1.275-1.275 1.275s-1.275-.6-1.275-1.275v-5.55c0-1.875-.975-3.375-3-3.375-2.1 0-3.15 1.575-3.15 3.375v5.475c0 .75-.525 1.275-1.275 1.275s-1.275-.6-1.275-1.275V33.25c0-.75.525-1.35 1.275-1.35.9 0 1.275.6 1.275 1.35v.9c.75-1.425 2.25-2.325 3.9-2.325 1.95 0 3.45.975 4.2 2.475 1.05-1.65 2.625-2.475 4.575-2.475 3.3 0 4.95 2.325 4.95 5.55v5.7c-.075.675-.6 1.275-1.425 1.275m4.95 0c-.75 0-1.275-.6-1.275-1.275V33.25c0-.75.525-1.275 1.275-1.275s1.275.6 1.275 1.275v9.825c0 .675-.525 1.275-1.275 1.275zm0-17.325c.825 0 1.5.675 1.5 1.5s-.675 1.5-1.5 1.5-1.5-.675-1.5-1.5.675-1.5 1.5-1.5zm8.55 9.375l3.3-4.05c.225-.225.525-.375.825-.375.75 0 1.2.45 1.2 1.125 0 .225-.075.525-.3.75l-3.6 4.275 3.675 4.35c.225.225.3.45.3.75 0 .6-.525 1.125-1.125 1.125-.375 0-.675-.15-.9-.45l-3.3-4.125-3.3 4.125c-.225.3-.525.45-.9.45-.6 0-1.125-.525-1.125-1.125 0-.3.075-.525.3-.75l3.675-4.35-3.6-4.275c-.225-.225-.3-.525-.3-.75 0-.675.45-1.125 1.2-1.125.375 0 .6.15.825.375zM66.9 34c-2.25 0-3.675 1.95-3.675 4.2 0 2.175 1.5 4.2 3.675 4.2 2.25 0 3.675-1.65 3.675-4.2S69.15 34 66.9 34zm.525 10.5c-1.875 0-3.375-.975-4.2-2.4v6.15c0 .75-.525 1.275-1.275 1.275s-1.275-.6-1.275-1.275v-15c0-.75.45-1.275 1.2-1.275s1.275.6 1.275 1.35v.975c.825-1.425 2.475-2.4 4.275-2.4 3.15 0 5.7 2.625 5.7 6.3 0 3.75-2.55 6.3-5.7 6.3zm13.05-10.425c-2.175 0-3.75 1.875-3.75 4.125 0 2.4 1.275 4.125 3.75 4.125 2.25 0 3.75-1.95 3.75-4.125-.075-2.625-1.575-4.125-3.75-4.125zm6.3 9c0 .75-.525 1.275-1.275 1.275s-1.275-.6-1.275-1.275v-.6c-.75 1.125-2.25 2.025-3.975 2.025-3.825 0-6.075-2.85-6.075-6.3s2.475-6.3 6.375-6.3c3.975 0 6.3 2.625 6.3 6.3v4.875zm7.725-11.25c3.3 0 5.775 2.55 5.775 5.775v5.475c0 .75-.6 1.275-1.275 1.275-.75 0-1.275-.6-1.275-1.275V37.3c0-1.725-1.35-3.075-3.15-3.075s-3.15 1.35-3.15 3.075v5.775c0 .75-.6 1.275-1.275 1.275-.75 0-1.275-.6-1.275-1.275V37.6c-.075-3.225 2.325-5.775 5.625-5.775m13.5 2.1c-1.875 0-3.15 1.35-3.45 3.075h6.75c-.225-1.725-1.425-3.075-3.3-3.075zm5.7 4.275c0 .45-.225.9-.975.9h-8.175c.15 1.875 1.425 3.3 3.675 3.3 1.425 0 2.25-.525 3.15-1.35.225-.225.525-.45.825-.45.6 0 1.05.45 1.05 1.05 0 .3-.15.525-.3.75-1.05 1.2-2.925 2.025-4.875 2.025-4.125 0-6.225-2.85-6.225-6.3 0-3.6 2.625-6.3 6.15-6.3 3.45 0 5.7 2.85 5.7 6.375zm3.075 6.15c-.75 0-1.275-.6-1.275-1.275v-16.2c0-.75.525-1.275 1.275-1.275s1.275.6 1.275 1.275v16.2c0 .675-.525 1.275-1.275 1.275" fill="#454f6b" fill-rule="evenodd"/></svg>