<svg height="80" width="140" xmlns="http://www.w3.org/2000/svg"><g fill="none"><path d="M43.713 39.0828a.731.731 0 0 1-.731.731H32.0188a.731.731 0 1 1 0-1.462h10.9623a.731.731 0 0 1 .731.731m-2.9232 4.0189h-6.5772a.731.731 0 1 1 0-1.4612h6.578a.731.731 0 0 1 0 1.4619m-6.578-8.0392h6.578a.731.731 0 1 1 0 1.462h-6.578a.731.731 0 0 1 0-1.462m8.794-1.8393a7.9634 7.9634 0 0 0-5.4995-2.1796c-.1723 0-.3454.0052-.5192.0156-4.0308.2504-7.2577 3.4781-7.508 7.5088-.1397 2.248.6284 4.3851 2.1631 6.0187a7.965 7.965 0 0 0 5.859 2.5346h8.0392v-8.0392a7.9634 7.9634 0 0 0-2.5347-5.859" fill="#f27557"/><path d="M45.5397 47.122h-8.0393c-2.242 0-4.3227-.9003-5.859-2.5346-1.5347-1.6336-2.3028-3.7708-2.1631-6.0187.2496-4.0307 3.4766-7.2584 7.508-7.5088a8.7176 8.7176 0 0 1 .52-.0156 7.9634 7.9634 0 0 1 5.4987 2.1796 7.9634 7.9634 0 0 1 2.5346 5.8589zm-1.5341-14.9634c-1.93-1.814-4.4542-2.724-7.1099-2.5569-4.7647.2957-8.5807 4.1117-8.8771 8.8764-.1642 2.6542.7436 5.18 2.5584 7.1099a9.5383 9.5383 0 0 0 6.9234 2.9952h8.7702c.4033 0 .731-.3269.731-.7302v-8.7702a9.5383 9.5383 0 0 0-2.996-6.9234z" fill="#c34027"/><path d="M40.7898 41.6405h-6.578a.731.731 0 0 0 0 1.4619h6.578a.731.731 0 1 0 0-1.462zm-6.578-5.1154h6.578a.731.731 0 1 0 0-1.4619h-6.578a.731.731 0 0 0 0 1.462zm-2.1922 1.8275a.731.731 0 0 0 0 1.4612h10.9623a.731.731 0 0 0 0-1.462H32.0196z" fill="#fefefe"/><path d="M68.101 39.29c0-3.042-2.063-5.873-5.423-5.873-3.3859 0-5.4228 2.8303-5.4228 5.873 0 3.042 2.037 5.8723 5.4229 5.8723 3.3599 0 5.4228-2.8302 5.4228-5.8722zm-1.058 8.7026l1.5868 2.1432-3.7559 1.9047-2.2218-3.016c-6.1643-.0268-9.7887-4.6548-9.7887-9.7344 0-5.079 3.6504-9.7344 9.8132-9.7344 6.1375 0 9.7886 4.6554 9.7886 9.7344 0 3.7031-1.9842 7.1953-5.4229 8.7025zM87.1219 35.798v12.7504h-4.0471V46.723c-.7146 1.349-2.1959 2.1431-4.18 2.1431-1.6396 0-2.8831-.5564-3.571-1.456-.7941-.9783-.979-2.2211-.979-4.0463V35.797h4.021v6.5342c0 1.8252.5557 3.0955 2.2486 3.0955 1.667 0 2.4604-1.2703 2.4604-3.2277v-6.4012zm2.9112 12.7504h4.0471V35.7979h-4.047zM92.0432 29c1.4813 0 2.6186 1.1366 2.6186 2.5666 0 1.401-1.1373 2.565-2.6186 2.565a2.574 2.574 0 0 1-2.5926-2.565c0-1.43 1.138-2.5666 2.5926-2.5666zm8.9945 13.1738c0 1.7717 1.216 3.2537 3.068 3.2537 1.7985 0 3.016-1.482 3.016-3.2537 0-1.7724-1.2175-3.2537-3.016-3.2537-1.852 0-3.068 1.4813-3.068 3.2537zm0-4.55c.6077-1.164 2.2479-2.1431 3.9149-2.1431 3.6764 0 6.2162 2.8838 6.2162 6.6931 0 3.8087-2.5406 6.6924-6.217 6.6924-1.6662 0-3.3057-.979-3.9148-2.1431v7.592h-4.0471V35.7986h4.047v1.8252z" fill="#3c3d3f"/></g></svg>