<svg height="80" width="140" xmlns="http://www.w3.org/2000/svg"><g fill="none" fill-rule="evenodd" transform="translate(16 23)"><circle cx="17.504" cy="17.504" fill="#ff4500" r="17.491"/><path d="M29.1696 17.5043c-.0522-1.4086-1.2348-2.5086-2.6479-2.4608-.626.0217-1.2217.2782-1.6739.7087-1.9913-1.3565-4.3304-2.1-6.7348-2.1522l1.1348-5.4565 3.7435.787c.1044.9608.9652 1.6565 1.926 1.5521s1.6566-.9652 1.5523-1.926c-.1044-.961-.9653-1.6566-1.9261-1.5523-.5522.0566-1.0478.3783-1.3218.8566l-4.287-.8566a.542.542 0 0 0-.6477.413v.0088l-1.2913 6.0696a12.5292 12.5292 0 0 0-6.8218 2.1521c-1.026-.9652-2.6435-.9174-3.6087.113-.9652 1.0262-.9174 2.6435.113 3.6088.2.187.4305.3478.687.4608a5.682 5.682 0 0 0 0 .7696c0 3.9174 4.5652 7.1043 10.1957 7.1043 5.6304 0 10.1956-3.1826 10.1956-7.1043a5.682 5.682 0 0 0 0-.7696c.8783-.4391 1.4305-1.3434 1.413-2.326zm-17.4913 1.7522c0-.9652.787-1.7522 1.7521-1.7522s1.7522.787 1.7522 1.7522-.787 1.7522-1.7522 1.7522c-.9695-.0087-1.7521-.787-1.7521-1.7522zm10.1608 4.8087c-1.2434.9348-2.7652 1.413-4.3217 1.3478-1.5565.0653-3.0783-.413-4.3217-1.3478-.1653-.2-.1348-.5.0652-.6652.1739-.1435.4217-.1435.6 0 1.0521.7696 2.3348 1.1609 3.6391 1.1a5.7569 5.7569 0 0 0 3.6565-1.0652c.1913-.187.5044-.1826.6913.0087.187.1913.1826.5043-.0087.6913zm-.313-2.9956c-.9652 0-1.7522-.787-1.7522-1.7522s.787-1.7522 1.7522-1.7522 1.7522.787 1.7522 1.7522c.039.9652-.713 1.7783-1.6783 1.8174h-.087z" fill="#fff" fill-rule="nonzero"/><g transform="translate(44 6)"><ellipse cx="53.288" cy="3.85" fill="#ff4500" rx="2.384" ry="2.342"/><g fill="#000"><path d="M19.5002 13.8162c.9224.0641 1.723-.6196 1.7925-1.5299.0044-.0513.0044-.111.0044-.1666a5.83 5.83 0 0 0-.1175-.9488c-.5656-2.9658-3.1456-5.1495-6.213-5.2692-3.4936 0-6.413 3.1539-6.413 7.0257 0 3.8717 2.8716 7.0299 6.4087 7.0299 1.8752.0726 3.6939-.671 4.9556-2.0342.5177-.5556.4742-1.4146-.0914-1.9231-.0435-.0385-.0827-.0726-.1262-.1026-.5656-.3461-1.3008-.2735-1.7794.1795-.7875.7693-1.8448 1.2094-2.9586 1.2436-1.923-.1496-3.4632-1.6282-3.6546-3.5214h8.1403zm-4.551-5.2692c1.6925.1111 3.1152 1.2992 3.4938 2.9274h-6.9787c.3742-1.6325 1.7882-2.8206 3.485-2.9274z" fill-rule="nonzero"/><path d="M8.6929 7.265c0-.6582-.496-1.218-1.1617-1.2992-1.7969-.2949-3.6242.359-4.8033 1.7265v-.171c0-.7307-.6004-1.3204-1.3444-1.3204S.0392 6.7906.0392 7.5214v10.812c-.0174.7093.5351 1.3119 1.2573 1.3717.7353.0513 1.3792-.4957 1.427-1.218a.9083.9083 0 0 0 0-.1538v-5.547c-.1174-2.2137 1.6099-4.0983 3.8636-4.218a3.5747 3.5747 0 0 1 .6047.0129h.2698c.6961-.0598 1.2313-.6282 1.2313-1.3162zm45.9355 1.4188c0-.7308-.6004-1.3206-1.3444-1.3206s-1.3444.5898-1.3444 1.3206v9.6453c0 .7307.6004 1.3205 1.3444 1.3205s1.3444-.5898 1.3444-1.3205z"/><path d="M34.7889 1.3547c0-.7265-.6005-1.3162-1.34-1.3162s-1.3401.5897-1.3401 1.3162v5.8974c-.905-.8974-2.1493-1.3846-3.4328-1.3504-3.4937 0-6.413 3.1539-6.413 7.0257 0 3.8717 2.8758 7.0299 6.413 7.0299 1.3052.0384 2.567-.453 3.4937-1.3633.2088.6966.9528 1.094 1.662.889.5351-.154.918-.6155.9528-1.1668zm-6.1216 16c-2.058 0-3.733-1.9658-3.733-4.3974 0-2.4317 1.662-4.3975 3.733-4.3975s3.733 1.9658 3.733 4.3975c0 2.4316-1.662 4.376-3.7243 4.376zm20.1398-16c0-.7265-.6004-1.3162-1.34-1.3162S46.127.6282 46.127 1.3547v5.8974c-.905-.8974-2.1493-1.3846-3.4328-1.3504-3.4937 0-6.413 3.1539-6.413 7.0257 0 3.8717 2.8758 7.0299 6.413 7.0299 1.3053.0384 2.567-.453 3.4937-1.3633.2088.6966.9528 1.094 1.662.889.5351-.154.918-.6155.9528-1.1668zm-6.1172 16c-2.058 0-3.733-1.9658-3.733-4.3974 0-2.4317 1.662-4.3975 3.733-4.3975s3.733 1.9658 3.733 4.3975c0 2.4316-1.662 4.376-3.7243 4.376z" fill-rule="nonzero"/><path d="M61.594 18.3248V8.547h1.1617c.6439.0385 1.192-.4444 1.2312-1.0726 0-.0214.0044-.047.0044-.0727.0566-.6282-.4177-1.1838-1.0529-1.2393-.0348-.0043-.074-.0043-.1088-.0043h-1.2312V4.342c.0087-.7051-.5395-1.2992-1.2574-1.3633-.7353-.0512-1.3749.4958-1.427 1.218-.0044.0299-.0044.064-.0044.094V6.188h-1.166c-.644-.0384-1.1921.4445-1.2313 1.0727 0 .0214-.0043.047-.0043.0726-.0566.6282.4176 1.1838 1.0528 1.2393a.9257.9257 0 0 0 .1088.0043h1.1617v9.7522c0 .7265.6004 1.3162 1.34 1.3162.7396.047 1.3705-.5085 1.4184-1.235.0043-.0257.0043-.0556.0043-.0855z"/></g></g></g></svg>