<svg height="80" width="140" xmlns="http://www.w3.org/2000/svg"><path d="M122 46.806c0 1.0215-.8253 1.8183-1.8938 1.8183-1.0686 0-1.8964-.7968-1.8964-1.8184 0-1.0228.8278-1.8196 1.8964-1.8196 1.0685 0 1.8938.7968 1.8938 1.8196zm-3.494 0c0 .8692.6823 1.5581 1.6003 1.5581.915 0 1.6002-.689 1.6002-1.5582 0-.8704-.6851-1.5608-1.6002-1.5608-.918 0-1.6003.6904-1.6003 1.5608zm1.1822 1.0493h-.2698v-2.1h.8411c.4947 0 .7115.2043.7115.5812 0 .3706-.2539.538-.55.5861l.6532.9327h-.3173l-.6163-.9327h-.4524v.9327zm.3572-1.1534c.3305 0 .656-.009.656-.3654 0-.2931-.254-.3617-.5184-.3617h-.4948v.7272h.3572zM33.4708 35.2002h-5.3853v13.437h-4.7002v-13.437H18v-3.8779h15.4708v3.878zm.9865-3.878h9.2008c3.186 0 6.3204 1.3807 6.3204 4.8728 0 1.8679-.9363 3.6406-2.8329 4.3424v.0483c1.923.4365 2.4784 2.4998 2.6292 4.1469.0503.7284.127 3.2739.7592 3.9045h-4.6514c-.4034-.5787-.4801-2.2804-.5303-2.7638-.127-1.7448-.4298-3.5417-2.6305-3.5417h-3.5642v6.3055h-4.7003zm4.7002 7.5174h3.9439c1.4163 0 2.1755-.7259 2.1755-2.038 0-1.2842-1.0647-1.8666-2.3767-1.8666h-3.7427zm27.5032 2.6444c0 5.0199-2.4018 7.516-7.8612 7.516-5.4593 0-7.861-2.4961-7.861-7.516V31.3223h4.7004v10.4282c0 2.2308.8595 3.3702 3.1606 3.3702 2.3013 0 3.161-1.1394 3.161-3.3702V31.3223h4.7002V41.484zm1.1637-10.1617h14.3838v3.6127h-9.6836v3.0315h8.8477v3.4922h-8.8477v3.2992h9.9348v3.8791h-14.635zm29.3758 5.2635c-.603-2.6596-2.899-4.1837-5.5201-4.1837-4.7638 0-6.7792 3.8209-6.7792 7.5947 0 3.7725 2.0154 7.5946 6.7792 7.5946 3.3273 0 5.446-2.4682 5.7714-5.539h1.714c-.4787 4.2332-3.2746 6.9412-7.4854 6.9412-5.6736 0-8.496-4.2813-8.496-8.9967 0-4.7154 2.8223-8.9969 8.496-8.9969 3.4041 0 6.7791 1.9593 7.234 5.5859h-1.714zm3.6819 3.3882c.1535-2.9274 2.2959-4.1875 5.269-4.1875 2.2931 0 4.79.6776 4.79 4.0162v6.6265c0 .5824.3017.92.9312.92.1771 0 .3781-.0484.505-.0965v1.2828c-.3518.071-.6057.0952-1.0314.0952-1.6162 0-1.8674-.8719-1.8674-2.1775h-.0503c-1.1082 1.6217-2.243 2.5404-4.7399 2.5404-2.3937 0-4.359-1.1358-4.359-3.6533 0-3.506 3.5524-3.6253 6.9828-4.0137 1.3094-.1446 2.0395-.3135 2.0395-1.6927 0-2.057-1.5369-2.5633-3.4016-2.5633-1.9653 0-3.4307.8705-3.4782 2.9034zm8.4694 1.8374h-.0504c-.201.363-.9071.4848-1.3357.5558-2.698.4594-6.0492.4365-6.0492 2.878 0 1.5226 1.4098 2.468 2.899 2.468 2.4201 0 4.5627-1.4781 4.5362-3.9197v-1.982zm4.314-5.6595h1.46v2.9274h.053c.804-2.0087 2.571-3.194 4.9118-3.0975v1.524c-2.87-.146-4.8378 1.887-4.8378 4.473v6.6519h-1.587z" fill="#1b6a99"/></svg>