<svg height="80" width="140" xmlns="http://www.w3.org/2000/svg"><path d="M33.2449 26.1331c3.3553 1.404 6.7088 2.8132 10.0636 4.2203.937.3595 1.4816 1.375 1.3214 2.3644-.4157 3.0255-.832 6.0505-1.2481 9.076-.1936 1.2498.4603 2.4748 1.6849 2.811.5784.1564 1.2053.1087 1.7615-.11 1.211-.4783 1.9419-1.5357 2.1003-2.8197.1717-1.229.343-2.4576.5142-3.6866.0189-.12.0296-.2413.0536-.3604.205-.7629.8914-1.3672 1.6669-1.4672.1331-.0191.268-.0126.402-.0135.692-.0004 1.3844 0 2.0763-.0004.3383-.0043.6813.1014.948.314.3207.2496.5168.6464.5395 1.0532.015.1412-.0192.2807-.035.4202-.1812 1.3416-.3623 2.6832-.5439 4.0244-.2034 1.7528 1.1818 2.9891 2.8976 2.6915 1.7444-.2972 2.4779-1.6834 2.7108-3.2802.2835-2.079.566-4.1574.8491-6.2364.0218-.1542.0364-.3101.08-.4604.2266-.811.9982-1.4378 1.834-1.4643.769-.0008 1.5385 0 2.3075-.0004.48.0035 1.0383.1616 1.3458.561.1357.1746.1987.4042.164.6242-.3087 2.2665-.617 4.533-.9258 6.8-.0586.4293-.1121.8599-.197 1.2849-.7475 3.7506-3.976 7.0014-7.6953 7.739-2.588.5143-5.1853-.0528-7.0792-2.0052-1.6181 1.3343-3.4781 2.1084-5.566 2.173-4.4561.1377-7.8516-3.1754-7.6097-7.714.0167-.3271.0552-.6525.1023-.976.3118-2.2679.6248-4.5357.9356-6.8035-2.0458-.852-4.0913-1.7055-6.1367-2.5585-.1756-.0762-.3589-.1382-.5233-.2382-.766-.4558-1.198-1.433-.993-2.3125.1949-.7797.3919-1.5586.5875-2.338.1679-.677.7965-1.6608 1.6066-1.3117m60.9304-1.131c.74-.004 1.4803-.001 2.2202-.0018.3254.01.656.091.9295.2747.2818.1901.4565.473.4038.8183-.4243 2.9717-.8495 5.9426-1.273 8.9144 1.6357-1.414 3.3502-1.9797 5.4701-2.001 1.4096-.0169 2.752.2955 3.8892 1.1692 2.0425 1.5713 2.5083 3.9062 2.1427 6.3906-.4064 2.6603-.8119 5.321-1.2178 7.9817-.0338.2002-.0475.406-.1177.5979-.2403.693-.9142 1.219-1.6447 1.2432h-2.0596c-.6187.0122-1.5988-.333-1.4383-1.1202.3276-2.2865.6534-4.5729.9806-6.8597.11-.792.2385-1.5314.1987-2.3393-.0728-1.4062-.6633-2.4368-2.1333-2.6222-1.3252-.1624-2.5365.2985-3.5274 1.177-1.0169.9097-1.3873 2.1123-1.5671 3.4201-.3254 2.2462-.6504 4.4928-.9759 6.7389-.1241.9154-.9098 1.6561-1.839 1.6293-.6611 0-1.3218-.0005-1.983 0-.7994-.004-1.5461-.367-1.3975-1.278 1.091-7.536 2.1811-15.0719 3.2734-22.6074.1276-.811.8581-1.4742 1.6661-1.5258m-22.1077.7872c1.8858-.1677 3.0903 1.2684 2.68 3.1255-.351 1.5929-1.8857 2.733-3.4944 2.5932-1.3273-.1157-2.2424-1.2074-2.1657-2.5512.0925-1.6184 1.3779-3.0215 2.9801-3.1675m16.2167 8.2576c.2676.182.3944.2925.5678.568.3276.5506.2916 1.31-.1195 1.8077-.295.38-.5909.7599-.8854 1.1402-.2677.3461-.59.6641-1.062.581-.4337-.0733-1.0464-.5598-1.5029-.762-1.1295-.5217-3.852-1.0502-4.8308.0186-.2064.2213-.2911.5475-.2316.8443.146.7173 1.893 1.1172 2.4453 1.2783.6993.1976 1.3994.3925 2.09.6186.7742.25 2.0108.8236 2.5738 1.4058.745.7572.9579 1.7887.9245 2.8219-.089 2.759-1.729 4.8444-4.1924 5.9157-2.0505.892-4.4167.8816-6.555.3418-.6376-.1603-1.2636-.37-1.8631-.6433-.5108-.2326-2.0142-1.0548-2.3486-1.4932-.1854-.2253-.2325-.554-.1195-.8235.048-.124.1332-.2266.212-.3314.4453-.594.8898-1.1887 1.3355-1.7826.2925-.3743.852-.4978 1.2726-.2803.498.2742 1.017.596 1.5217.8443a7.5436 7.5436 0 0 0 3.0466.81c.855.0408 2.2462-.0103 2.6672-.9326.1036-.2296.1413-.5069.0334-.742-.4132-.9042-2.4955-1.3564-3.3853-1.635-1.0764-.3353-2.349-.836-3.244-1.5625-1.1106-.8903-1.4232-2.1453-1.27-3.5315.3015-2.727 2.4459-4.6383 4.9328-5.4163 2.6359-.836 5.6529-.6086 7.987.94m-18.1539-.8304c.1829-.0182.367-.01.5507-.0117h1.425c.182 0 .3648-.0017.5446.0282.3927.0658.8418.2668 1.0003.6658.048.12.06.253.0394.3808-.6697 4.8198-1.3398 9.6396-2.0095 14.4593-.0167.121-.0334.2422-.069.3592-.2106.7126-.8897 1.2632-1.6283 1.2913h-2.0134c-.328.0078-.664-.0554-.9518-.2192-.2942-.1685-.528-.4648-.4796-.8213.6646-4.7808 1.3291-9.5616 1.9932-14.3424.0266-.1711.0394-.3457.0904-.5116.2008-.6728.8174-1.1983 1.508-1.2784" fill="#2eb7eb" fill-rule="evenodd"/></svg>