<svg xmlns="http://www.w3.org/2000/svg" width="140" height="80"><path d="M93.9 37.7c0-1.8-.3-3.8-2-5.5-1.7-1.7-3.7-2-5.5-2h-4.7c-1.8 0-3.8.3-5.5 2-1.7 1.7-2 3.7-2 5.5v4.7c0 1.8.3 3.8 2 5.5 1.7 1.7 3.7 2 5.5 2h4.7c1.8 0 3.8-.3 5.5-2s2-3.7 2-5.5v-4.7zm-2.5 4.9c0 1.1-.2 2.4-1.3 3.5s-2.4 1.3-3.5 1.3h-5.2c-1.1 0-2.4-.2-3.5-1.3s-1.3-2.4-1.3-3.5v-5.2c0-1.1.2-2.4 1.3-3.5s2.4-1.3 3.5-1.3h5.2c1.1 0 2.4.2 3.5 1.3s1.3 2.4 1.3 3.5v5.2zm-25.7-4.9c0-1.8-.3-3.8-2-5.5-1.7-1.7-3.7-2-5.5-2h-4.7c-1.8 0-3.8.3-5.5 2-1.7 1.7-2 3.7-2 5.5v4.7c0 1.8.3 3.8 2 5.5 1.7 1.7 3.7 2 5.5 2h4.7c1.8 0 3.8-.3 5.5-2s2-3.7 2-5.5v-4.7zm-2.4 4.9c0 1.1-.2 2.4-1.3 3.5s-2.4 1.3-3.5 1.3h-5.2c-1.1 0-2.4-.2-3.5-1.3s-1.3-2.4-1.3-3.5v-5.2c0-1.1.2-2.4 1.3-3.5s2.4-1.3 3.5-1.3h5.2c1.1 0 2.4.2 3.5 1.3s1.3 2.4 1.3 3.5v5.2zm-29-9.8L17.7 45.7c-.3.3-.5.7-.5 1.1v1.6c0 .8.6 1.4 1.4 1.4h17.9c.2 0 .3-.2.3-.3v-1.8c0-.2-.2-.3-.3-.3H19.7s-.1 0-.1-.1v-.1l16.6-12.9c.3-.3.5-.7.5-1.1v-1.6c0-.8-.6-1.4-1.4-1.4H17.5c-.2 0-.3.2-.3.3v1.8c0 .2.2.3.3.3h16.8m72 17l6.7-7.7h.2l6.7 7.7c.1.1.3.2.5.2h2.2c.1 0 .2-.1.3-.2 0-.1 0-.2-.1-.3l-8.1-9.3v-.1l8.1-9.3c.1-.1.1-.2.1-.3 0-.1-.2-.2-.3-.2h-2.2c-.2 0-.4.1-.5.2l-6.8 7.8h-.1-.1l-6.8-7.8c-.1-.1-.3-.2-.5-.2h-2.2c-.1 0-.2.1-.3.2 0 .1 0 .2.1.3l8.1 9.3v.1l-8.1 9.3c-.1.1-.1.2-.1.3 0 .1.2.2.3.2h2.2c.3 0 .5-.1.7-.2z" fill="#1a1a1a"/></svg>
